<svg xmlns="http://www.w3.org/2000/svg" width="401.102" height="245.666" viewBox="0 0 401.102 245.666">
  <g id="Indira_BackOffice" transform="translate(-44.442 -49.944)">
    <g id="Group_3812" data-name="Group 3812" transform="translate(44.442 49.944)">
      <g id="Group_3811" data-name="Group 3811">
        <path id="Path_3206" data-name="Path 3206" d="M151.856,211.569H118.611A32.627,32.627,0,0,0,86.08,244.1h0a32.626,32.626,0,0,0,32.531,32.531h281.1a52.832,52.832,0,0,0,52.678-52.677h0a52.831,52.831,0,0,0-52.677-52.676h0A22.339,22.339,0,0,1,377.44,149h0a22.338,22.338,0,0,1,22.273-22.273h26.806a23.225,23.225,0,0,0,23.156-23.156h0a23.224,23.224,0,0,0-23.156-23.156h-33.9a9.043,9.043,0,0,1-9.015-9.016h0a9.042,9.042,0,0,1,9.015-9.015H398.6a6.241,6.241,0,0,0,6.221-6.222h0a6.24,6.24,0,0,0-6.221-6.222H359.389c-8.257,0-9.177,9.755-30.035,9.755h-60.1a8.143,8.143,0,0,0-8.119,8.118h0a8.144,8.144,0,0,0,8.119,8.119h7.8A11.8,11.8,0,0,1,288.815,87.7h0a11.8,11.8,0,0,1-11.764,11.764H265.318c-31.685,0-36.161,8.281-41.71,24.75s-34.372,17.8-34.372,17.8h-39.41A17.78,17.78,0,0,0,132.1,159.739h0a17.78,17.78,0,0,0,17.727,17.727h2.03a17.1,17.1,0,0,1,17.051,17.052h0a17.1,17.1,0,0,1-17.051,17.05Zm264.2-149.181a6.222,6.222,0,1,1,6.222-6.222A6.223,6.223,0,0,1,416.058,62.388Z" transform="translate(-60.508 -49.944)" fill="#e2e8f5" fill-rule="evenodd"/>
        <g id="Group_3807" data-name="Group 3807" transform="translate(39.896)">
          <path id="Path_3207" data-name="Path 3207" d="M197.735,334.47h2.848v-17.3l10.8,10.8-6.5,6.5h2.685l5.156-5.156,5.156,5.156h2.685l-6.5-6.5,10.8-10.8v17.3h2.848V199.851h-2.848v3.279l-3.28-3.279H218.9l5.964,5.964v.163l-12.14,12.14-12.14-12.14v-.163l5.964-5.964h-2.685l-3.279,3.279v-3.279h-2.848v35.688a16.915,16.915,0,0,1,2.848.736v-.484l.783.783a17.21,17.21,0,0,1,9.353,9.354l.661.661-.3.3a16.656,16.656,0,0,1,.571,2.113l1.071-1.071,12.14,12.14v.163l-12.14,12.14-6.911-6.911a17.23,17.23,0,0,1-1.542,1.143l7.11,7.11-10.8,10.8V268.441a16.858,16.858,0,0,1-2.848.735V334.47Zm2.848-22.829V290.047l10.8,10.8-10.8,10.8Zm0-81.384v-21.6l10.8,10.8-10.8,10.8Zm24.28-21.6v21.6l-10.8-10.8,10.8-10.8Zm0,27.128v21.6l-10.8-10.8,10.8-10.8Zm0,27.128v21.595l-10.8-10.8,10.8-10.8Zm0,27.128v21.595l-10.8-10.8,10.8-10.8Zm-24.28-57.1,12.14-12.14,12.14,12.14v.163l-12.14,12.141-12.14-12.141v-.163Zm0,54.256,12.14-12.14,12.14,12.14v.164l-12.14,12.14-12.14-12.14V287.2Zm0,27.128,12.14-12.14,12.14,12.14v.164l-12.14,12.139-12.14-12.139Z" transform="translate(-143.485 -107.783)" fill="#bfcce8" fill-rule="evenodd"/>
          <path id="Path_3208" data-name="Path 3208" d="M522.053,276.631H524.9v-17.3l10.8,10.8-6.5,6.5h2.685l5.156-5.156,5.157,5.156h2.685l-6.5-6.5,10.8-10.8v17.3h2.848V164.563a22.516,22.516,0,0,1-2.848-3.568v11.423l-10.8-10.8,7.8-7.8a22,22,0,0,1-.386-2.3l-8.757,8.757-12.14-12.14v-.163l12.14-12.14,9.007,9.008q.212-1.1.526-2.159l-8.191-8.191,10.8-10.8v13.319a22.516,22.516,0,0,1,2.848-3.568V73.323a9,9,0,0,1-.208-1.92h0a9,9,0,0,1,.208-1.919V49.944h-2.848V63.906l-10.8-10.8,3.165-3.165h-2.685l-1.823,1.822-1.822-1.822h-2.685l3.165,3.165-10.8,10.8V50.333a12.246,12.246,0,0,0-2.847,1.317V276.631ZM524.9,253.8V232.207L535.7,243l-10.8,10.8Zm0-27.128V205.08l10.8,10.8-10.8,10.8Zm0-27.128v-21.6l10.8,10.8-10.8,10.8Zm0-27.128v-21.6l10.8,10.8-10.8,10.8Zm0-27.128V123.7l10.8,10.8-10.8,10.8Zm0-27.128v-21.6l10.8,10.8-10.8,10.8Zm0-27.128v-21.6l10.8,10.8-10.8,10.8Zm24.28-21.6v21.6l-10.8-10.8,10.8-10.8Zm0,27.128v21.6l-10.8-10.8,10.8-10.8Zm0,81.384v21.6l-10.8-10.8,10.8-10.8Zm0,27.128v21.595l-10.8-10.8,10.8-10.8Zm0,27.128V253.8l-10.8-10.8,10.8-10.8ZM524.9,66.591l12.14-12.14,12.14,12.14v.163l-12.14,12.14L524.9,66.754v-.163Zm0,27.128,12.14-12.14,12.14,12.14v.163l-12.14,12.14L524.9,93.883v-.163Zm0,27.128,12.14-12.14,12.14,12.14v.163l-12.14,12.14L524.9,121.01v-.163Zm0,54.256,12.14-12.14,12.14,12.14v.163l-12.14,12.141L524.9,175.266V175.1Zm0,27.128,12.14-12.14,12.14,12.14v.163l-12.14,12.14-12.14-12.14v-.163Zm0,27.128,12.14-12.14,12.14,12.14v.164l-12.14,12.14-12.14-12.14v-.164Zm0,27.128,12.14-12.14,12.14,12.14v.164L537.04,268.79,524.9,256.651Z" transform="translate(-268.618 -49.944)" fill="#bfcce8" fill-rule="evenodd"/>
          <path id="Path_3209" data-name="Path 3209" d="M153.572,269.91h-4.2v5.145l-5.145-5.145h-3.956l9.1,9.1v.24l-17.888,17.888L113.6,279.252v-.24l8.654-8.654a32.156,32.156,0,0,0-5.323,1.367l-3.331,3.331V273.1a32.581,32.581,0,0,0-4.2,2.419v53.84a32.585,32.585,0,0,0,4.2,2.419v-8.6l11.709,11.709q1.141.081,2.3.083h1.737L113.6,319.225v-.241L131.487,301.1l17.888,17.888v.241l-15.748,15.748h3.956l11.793-11.792v11.792h4.2V269.91Zm0-68.758a17.874,17.874,0,0,0-9.984,7.9l5.787-5.787v29.8a17.672,17.672,0,0,0,4.2,1.949V201.152ZM113.6,315.028v-31.82l15.911,15.909L113.6,315.028Zm35.776-31.82v31.82l-15.91-15.911Z" transform="translate(-109.403 -108.285)" fill="#bfcce8" fill-rule="evenodd"/>
          <path id="Path_3210" data-name="Path 3210" d="M587.275,276.631h4.2V264.839L602.429,275.8q1.645-.3,3.256-.7l-14.212-14.213v-.241l17.888-17.888,17.888,17.888v.241l-9.664,9.665a53.192,53.192,0,0,0,13.862-10.581V187.942a53.457,53.457,0,0,0-5.841-5.359L609.36,198.826l-17.888-17.888v-.24l8.909-8.91q-1.771-.247-3.578-.376l-5.331,5.33v-5.524a22.122,22.122,0,0,1-4.2-.717v106.13Zm0-149.122a22.125,22.125,0,0,1,4.2-.718V104.949l15.91,15.911-5.872,5.872h3.955l3.894-3.894,3.894,3.894h3.956l-5.872-5.872,15.909-15.911v20.579a23.072,23.072,0,0,0,4.2-1.9v-40.1a23.072,23.072,0,0,0-4.2-1.9V96.8L611.338,80.887l.469-.468h-4.894l.469.468L591.472,96.8V80.419h-4.2v47.09Zm0-65.121h4.7a6.193,6.193,0,0,0,.809-.053l-1.314-1.314V60.78l6.447-6.449a6.232,6.232,0,0,0-1.473-2.482l-4.974,4.975V49.944h-4.2V62.388Zm4.2,194.3v-31.82l15.91,15.909-15.91,15.911Zm0-39.973V184.894l15.91,15.909-15.91,15.91Zm35.775-31.819v31.819L611.338,200.8l15.909-15.909Zm0,39.972v31.82l-15.909-15.911,15.909-15.909ZM591.472,100.753,609.36,82.865l17.888,17.888v.241L609.36,118.882l-17.888-17.888v-.241Zm0,119.918,17.888-17.888,17.888,17.888v.24L609.36,238.8,591.472,220.91Z" transform="translate(-293.783 -49.944)" fill="#bfcce8" fill-rule="evenodd"/>
        </g>
        <g id="Group_3810" data-name="Group 3810" transform="translate(71.618 174.909)">
          <g id="Group_3808" data-name="Group 3808" transform="translate(4.182)">
            <rect id="Rectangle_512" data-name="Rectangle 512" width="32.826" height="24.393" rx="3.432" fill="#90a9d5"/>
            <rect id="Rectangle_513" data-name="Rectangle 513" width="32.826" height="24.393" rx="3.432" transform="translate(18.772)" fill="#b6c7e6"/>
            <path id="Rectangle_514" data-name="Rectangle 514" d="M1.96,0H21.63a1.96,1.96,0,0,1,1.96,1.96V6.32a1.961,1.961,0,0,1-1.961,1.961H1.961A1.961,1.961,0,0,1,0,6.32V1.96A1.96,1.96,0,0,1,1.96,0Z" transform="translate(23.39 8.056)" fill="#90a9d5"/>
            <path id="Rectangle_515" data-name="Rectangle 515" d="M.428,0H10.514a.428.428,0,0,1,.428.428v.951a.428.428,0,0,1-.428.428H.427A.427.427,0,0,1,0,1.38V.428A.428.428,0,0,1,.428,0Z" transform="translate(25.85 9.461)" fill="#e6e4eb"/>
            <path id="Rectangle_516" data-name="Rectangle 516" d="M.427,0H5.244a.428.428,0,0,1,.428.428v.951a.428.428,0,0,1-.428.428H.428A.428.428,0,0,1,0,1.379V.427A.427.427,0,0,1,.427,0Z" transform="translate(25.85 12.323)" fill="#e6e4eb"/>
          </g>
          <g id="Group_3809" data-name="Group 3809" transform="translate(0 24.393)">
            <path id="Rectangle_517" data-name="Rectangle 517" d="M4.113,0h31.11a4.114,4.114,0,0,1,4.114,4.114v21a4.114,4.114,0,0,1-4.114,4.114H4.113A4.113,4.113,0,0,1,0,25.12V4.113A4.113,4.113,0,0,1,4.113,0Z" transform="translate(22.495)" fill="#90a9d5"/>
            <path id="Rectangle_518" data-name="Rectangle 518" d="M4.113,0H35.224a4.113,4.113,0,0,1,4.113,4.113V25.119a4.114,4.114,0,0,1-4.114,4.114H4.113A4.113,4.113,0,0,1,0,25.12V4.113A4.113,4.113,0,0,1,4.113,0Z" fill="#b6c7e6"/>
            <rect id="Rectangle_519" data-name="Rectangle 519" width="28.269" height="9.923" rx="2.349" transform="translate(5.534 9.655)" fill="#90a9d5"/>
            <rect id="Rectangle_520" data-name="Rectangle 520" width="13.111" height="2.166" rx="0.513" transform="translate(17.744 11.338)" fill="#e6e4eb"/>
            <rect id="Rectangle_521" data-name="Rectangle 521" width="6.796" height="2.166" rx="0.513" transform="translate(24.06 14.767)" fill="#e6e4eb"/>
          </g>
        </g>
        <path id="Path_3211" data-name="Path 3211" d="M448.5,151.347a9.23,9.23,0,1,1-2.008,3,9.268,9.268,0,0,1,2.008-3Zm3.328-1.218a8.434,8.434,0,1,0,3.21-.634,8.408,8.408,0,0,0-3.21.634Zm-1.022-6.8a14.883,14.883,0,0,0-1.7.607,15.053,15.053,0,0,0-1.637.817,15.293,15.293,0,0,0-2.95,2.224.965.965,0,0,1-1.156.14c-1.358-.784-2.785-1.56-4.115-2.376a.562.562,0,0,0-.2-.062.624.624,0,0,0-.227.017.611.611,0,0,0-.209.1.6.6,0,0,0-.149.171c-.99,1.5-1.983,3.433-2.9,5.021a.582.582,0,0,0-.072.213.608.608,0,0,0,.018.234.592.592,0,0,0,.1.208.574.574,0,0,0,.17.15c1.222.808,2.8,1.616,4.09,2.363a.96.96,0,0,1,.408.458.973.973,0,0,1,.061.2l.085.028-.1.381c-.074.3-.139.6-.194.9s-.1.6-.138.913-.066.617-.084.919-.027.607-.027.93.009.633.027.929.046.611.084.921.085.621.138.911.12.6.194.9a.964.964,0,0,1-.5,1.092L436.2,164.73v0l-.429.247a.585.585,0,0,0-.171.15.625.625,0,0,0-.119.442.578.578,0,0,0,.072.213l2.681,4.647h0l.217.375a.591.591,0,0,0,.149.171.615.615,0,0,0,.441.118.578.578,0,0,0,.212-.072c1.3-.815,2.761-1.594,4.1-2.366a.968.968,0,0,1,1.153.139h0a15.077,15.077,0,0,0,6.332,3.66.969.969,0,0,1,.7.933l0,4.727a.571.571,0,0,0,.044.222.607.607,0,0,0,.319.32.58.58,0,0,0,.223.044h5.8a.574.574,0,0,0,.222-.044.608.608,0,0,0,.192-.128.614.614,0,0,0,.128-.192.571.571,0,0,0,.044-.222v-4.727a.98.98,0,0,1,.746-.945,14.754,14.754,0,0,0,1.7-.607,15.232,15.232,0,0,0,4.587-3.041.97.97,0,0,1,1.205-.11l4.046,2.336a.559.559,0,0,0,.215.071.613.613,0,0,0,.233-.017.581.581,0,0,0,.358-.272c.961-1.677,1.938-3.346,2.9-5.022a.566.566,0,0,0,.072-.214.62.62,0,0,0-.118-.441.558.558,0,0,0-.167-.15l-4.094-2.363a.963.963,0,0,1-.408-.458,1.012,1.012,0,0,1-.052-.156l-.106-.021.107-.434c.075-.3.139-.6.195-.9s.1-.6.138-.913.066-.617.084-.921.027-.606.027-.929-.009-.633-.027-.929-.047-.61-.084-.919-.085-.626-.138-.915-.12-.6-.195-.9a.966.966,0,0,1,.5-1.092l4.055-2.341a.552.552,0,0,0,.168-.149.583.583,0,0,0,.1-.209.6.6,0,0,0,.017-.233.566.566,0,0,0-.072-.214c-.99-1.472-1.981-3.439-2.9-5.022a.6.6,0,0,0-.15-.171.609.609,0,0,0-.208-.1.624.624,0,0,0-.233-.017.571.571,0,0,0-.214.073l-4.1,2.365a.961.961,0,0,1-.614.123.977.977,0,0,1-.553-.274,15.381,15.381,0,0,0-1.4-1.2,15.11,15.11,0,0,0-3.184-1.838,14.874,14.874,0,0,0-1.733-.614.968.968,0,0,1-.7-.933l0-4.727a.588.588,0,0,0-.043-.222.6.6,0,0,0-.13-.19.58.58,0,0,0-.191-.129.573.573,0,0,0-.222-.044h-5.8a.579.579,0,0,0-.223.044.591.591,0,0,0-.363.542v4.727a.966.966,0,0,1-.208.6.981.981,0,0,1-.538.344Zm-2.039-.179a16.058,16.058,0,0,0-4.845,3.212.11.11,0,0,1-.065.03.112.112,0,0,1-.071-.014q-2.065-1.192-4.131-2.386a1.42,1.42,0,0,0-.517-.162,1.469,1.469,0,0,0-.543.041,1.45,1.45,0,0,0-.505.249,1.4,1.4,0,0,0-.37.422c-1,1.616-1.946,3.367-2.9,5.02a1.43,1.43,0,0,0-.179.534,1.448,1.448,0,0,0,.037.562,1.433,1.433,0,0,0,.249.506,1.405,1.405,0,0,0,.422.37c1.317.814,2.746,1.586,4.093,2.364a.11.11,0,0,1,.047.053.111.111,0,0,1,.007.072l-.094.382,0,0q-.062.278-.114.565-.09.492-.148.967t-.088.97q-.03.5-.03.98t.03.979c.02.333.05.658.088.971s.088.638.148.965.129.642.2.95a.106.106,0,0,1-.007.074.114.114,0,0,1-.05.055c-1.5.8-3.032,1.749-4.518,2.607l.053.066-.046.057a1.454,1.454,0,0,0-.286,1.068,1.417,1.417,0,0,0,.18.534l3.116,5.4.057-.034c.031.028.064.055.1.08a1.45,1.45,0,0,0,.505.249,1.467,1.467,0,0,0,.561.037,1.439,1.439,0,0,0,.52-.171c1.362-.723,2.767-1.6,4.112-2.375a.121.121,0,0,1,.068-.012.124.124,0,0,1,.068.031,15.991,15.991,0,0,0,6.688,3.866.12.12,0,0,1,.06.041.106.106,0,0,1,.023.069v4.727a1.442,1.442,0,0,0,.425,1.018,1.458,1.458,0,0,0,.467.313,1.424,1.424,0,0,0,.55.111h5.8a1.429,1.429,0,0,0,.55-.111,1.448,1.448,0,0,0,.781-.782,1.438,1.438,0,0,0,.111-.55v-4.727a.113.113,0,0,1,.023-.072.116.116,0,0,1,.064-.039l.019-.007a15.859,15.859,0,0,0,1.822-.647,16.044,16.044,0,0,0,4.845-3.212.108.108,0,0,1,.067-.031.121.121,0,0,1,.074.018l4.093,2.363a1.418,1.418,0,0,0,.532.179,1.453,1.453,0,0,0,1.067-.286,1.435,1.435,0,0,0,.364-.41c1.075-1.729,2.091-3.624,3.117-5.4l-.055-.033a1.26,1.26,0,0,0,.025-.136,1.469,1.469,0,0,0-.037-.561,1.438,1.438,0,0,0-.25-.505,1.413,1.413,0,0,0-.42-.37l-4.095-2.364a.11.11,0,0,1-.046-.053.12.12,0,0,1-.007-.074l.106-.433h-.006c.037-.168.071-.34.1-.513.06-.327.11-.65.148-.967s.068-.638.088-.971.031-.66.031-.979-.01-.645-.031-.979-.049-.657-.088-.973-.087-.635-.148-.965-.128-.641-.2-.947a.124.124,0,0,1,.008-.077.118.118,0,0,1,.052-.053l4.089-2.361a1.394,1.394,0,0,0,.42-.371,1.448,1.448,0,0,0,.114-1.587c-.975-1.805-2.092-3.625-3.123-5.41l-.058.034c-.031-.028-.063-.055-.1-.08a1.452,1.452,0,0,0-1.067-.286,1.422,1.422,0,0,0-.532.177l-.3.174v0l-3.8,2.191a.113.113,0,0,1-.138-.018l-.01-.01a15.958,15.958,0,0,0-6.678-3.856.11.11,0,0,1-.059-.041.1.1,0,0,1-.023-.069v-4.727a1.439,1.439,0,0,0-.426-1.018,1.462,1.462,0,0,0-.466-.313,1.429,1.429,0,0,0-.55-.111h-5.8a1.424,1.424,0,0,0-.55.111,1.487,1.487,0,0,0-.469.313,1.439,1.439,0,0,0-.424,1.018v4.727a.126.126,0,0,1-.023.072.117.117,0,0,1-.064.039l-.018.007A16.1,16.1,0,0,0,448.763,143.146Z" transform="translate(-194.988 -83.23)" fill="#bfcce8" fill-rule="evenodd"/>
        <path id="Path_3212" data-name="Path 3212" d="M58.315,226.83a9.24,9.24,0,1,1-2.007,3,9.264,9.264,0,0,1,2.007-3Zm3.328-1.217a8.438,8.438,0,1,0,3.21-.634,8.4,8.4,0,0,0-3.21.634Zm-1.022-6.8a15.047,15.047,0,0,0-3.34,1.425,15.272,15.272,0,0,0-2.95,2.224.965.965,0,0,1-1.156.14c-1.357-.784-2.785-1.559-4.116-2.376a.558.558,0,0,0-.2-.062.612.612,0,0,0-.435.119.583.583,0,0,0-.15.171c-.99,1.5-1.983,3.433-2.9,5.021a.582.582,0,0,0-.072.213.619.619,0,0,0,.018.234.581.581,0,0,0,.272.358c1.222.807,2.8,1.616,4.09,2.363a.963.963,0,0,1,.469.659l.084.029-.095.381q-.111.45-.194.9c-.053.291-.1.6-.138.913s-.066.617-.084.919-.027.607-.027.93.009.633.027.929.047.61.084.921.085.621.138.911.12.6.194.9a.967.967,0,0,1-.5,1.093l-3.622,2.091h0l-.429.248a.575.575,0,0,0-.272.358.619.619,0,0,0-.018.234.589.589,0,0,0,.072.214l2.682,4.646h0l.217.376a.581.581,0,0,0,.15.17.6.6,0,0,0,.208.1.611.611,0,0,0,.233.017.565.565,0,0,0,.212-.072c1.3-.815,2.761-1.593,4.1-2.365a.965.965,0,0,1,1.152.138l0,0a15.238,15.238,0,0,0,2.95,2.223,14.95,14.95,0,0,0,3.382,1.437.967.967,0,0,1,.7.933l0,4.727a.571.571,0,0,0,.044.222.609.609,0,0,0,.32.321.585.585,0,0,0,.222.043h5.8a.59.59,0,0,0,.222-.043.622.622,0,0,0,.191-.128.631.631,0,0,0,.128-.192.571.571,0,0,0,.044-.222v-4.727a.977.977,0,0,1,.746-.944,15.064,15.064,0,0,0,3.341-1.425,15.267,15.267,0,0,0,2.95-2.223.97.97,0,0,1,1.2-.111l4.047,2.337a.567.567,0,0,0,.214.071.614.614,0,0,0,.233-.017.594.594,0,0,0,.208-.1.573.573,0,0,0,.15-.17c.961-1.677,1.938-3.346,2.9-5.022a.587.587,0,0,0,.072-.214.611.611,0,0,0-.018-.232.584.584,0,0,0-.1-.209.558.558,0,0,0-.167-.149L80.026,238.1a.962.962,0,0,1-.408-.458.9.9,0,0,1-.052-.157l-.107-.021.107-.434c.074-.3.139-.6.194-.9s.1-.6.138-.912.066-.617.084-.921.027-.606.027-.929-.009-.633-.027-.929-.047-.61-.084-.919-.085-.626-.138-.916-.12-.6-.194-.9a.963.963,0,0,1,.061-.64.976.976,0,0,1,.435-.452l4.054-2.341a.549.549,0,0,0,.169-.15.577.577,0,0,0,.1-.208.613.613,0,0,0,.018-.233.585.585,0,0,0-.072-.214c-.99-1.472-1.981-3.439-2.9-5.022a.583.583,0,0,0-.15-.171.6.6,0,0,0-.208-.1.625.625,0,0,0-.233-.017.574.574,0,0,0-.214.073l-4.1,2.365a.957.957,0,0,1-.614.122.975.975,0,0,1-.553-.273,15.117,15.117,0,0,0-2.939-2.213,15.043,15.043,0,0,0-3.382-1.436.969.969,0,0,1-.7-.932l0-4.727a.577.577,0,0,0-.044-.222.6.6,0,0,0-.129-.19.572.572,0,0,0-.413-.173h-5.8a.574.574,0,0,0-.222.044.59.59,0,0,0-.364.542v4.727a.97.97,0,0,1-.208.6.981.981,0,0,1-.538.343Zm-2.039-.179a16.058,16.058,0,0,0-4.845,3.212.112.112,0,0,1-.064.031.119.119,0,0,1-.071-.014q-2.065-1.192-4.131-2.386a1.43,1.43,0,0,0-.517-.162,1.456,1.456,0,0,0-1.049.289,1.421,1.421,0,0,0-.37.422c-1,1.616-1.946,3.367-2.9,5.02a1.43,1.43,0,0,0-.179.534,1.453,1.453,0,0,0,.286,1.068,1.413,1.413,0,0,0,.422.37c1.317.813,2.746,1.586,4.093,2.364a.109.109,0,0,1,.046.053.111.111,0,0,1,.007.072l-.095.382.006,0c-.041.185-.079.374-.114.566-.06.327-.11.65-.148.966s-.068.637-.088.97-.03.661-.03.98.01.645.03.979.05.658.088.971.088.638.148.965.129.642.2.949a.111.111,0,0,1-.008.074.107.107,0,0,1-.05.055c-1.5.8-3.032,1.749-4.518,2.608l.053.067-.045.057a1.451,1.451,0,0,0-.286,1.067,1.41,1.41,0,0,0,.18.534l3.116,5.4.058-.035c.031.028.063.055.1.08a1.461,1.461,0,0,0,.505.249,1.462,1.462,0,0,0,1.081-.133c1.363-.724,2.766-1.6,4.112-2.375a.114.114,0,0,1,.069-.012.12.12,0,0,1,.067.031,16.011,16.011,0,0,0,3.113,2.345,15.882,15.882,0,0,0,3.576,1.52.117.117,0,0,1,.06.04.109.109,0,0,1,.023.07V253.6a1.424,1.424,0,0,0,.111.55,1.462,1.462,0,0,0,.782.782,1.427,1.427,0,0,0,.55.111h5.8a1.424,1.424,0,0,0,.55-.111,1.477,1.477,0,0,0,.469-.313,1.449,1.449,0,0,0,.313-.469,1.424,1.424,0,0,0,.111-.55v-4.727a.107.107,0,0,1,.087-.111l.018-.007a15.861,15.861,0,0,0,3.553-1.512,15.959,15.959,0,0,0,3.114-2.347.117.117,0,0,1,.068-.032.121.121,0,0,1,.073.018l4.093,2.364a1.432,1.432,0,0,0,.532.179,1.472,1.472,0,0,0,.561-.037,1.45,1.45,0,0,0,.505-.249,1.428,1.428,0,0,0,.364-.41c1.075-1.729,2.092-3.623,3.118-5.4l-.055-.033c.01-.046.018-.091.024-.137a1.455,1.455,0,0,0-.037-.561,1.437,1.437,0,0,0-.249-.5,1.4,1.4,0,0,0-.421-.371l-4.095-2.364a.108.108,0,0,1-.046-.053.123.123,0,0,1-.007-.074l.106-.432-.006,0c.037-.168.071-.339.1-.513.06-.327.11-.65.148-.965s.068-.638.088-.972.03-.66.03-.979-.01-.645-.03-.979-.049-.657-.088-.973-.087-.636-.148-.965-.128-.641-.2-.947a.121.121,0,0,1,.008-.076.11.11,0,0,1,.052-.053l4.089-2.361a1.394,1.394,0,0,0,.42-.371,1.451,1.451,0,0,0,.286-1.066,1.435,1.435,0,0,0-.173-.521c-.975-1.805-2.092-3.625-3.123-5.41l-.058.034c-.031-.028-.063-.055-.1-.08a1.451,1.451,0,0,0-.505-.249,1.469,1.469,0,0,0-.561-.037,1.414,1.414,0,0,0-.532.177l-.3.174v0l-3.8,2.191a.114.114,0,0,1-.072.015.116.116,0,0,1-.066-.033l-.01-.01a15.965,15.965,0,0,0-6.678-3.856.118.118,0,0,1-.06-.041.1.1,0,0,1-.023-.069v-4.727a1.437,1.437,0,0,0-.426-1.018,1.448,1.448,0,0,0-.467-.313,1.423,1.423,0,0,0-.55-.111h-5.8a1.426,1.426,0,0,0-.55.111,1.483,1.483,0,0,0-.469.313,1.438,1.438,0,0,0-.424,1.018v4.727a.124.124,0,0,1-.023.072.116.116,0,0,1-.063.039l-.018.007A15.953,15.953,0,0,0,58.582,218.629Z" transform="translate(-44.442 -112.354)" fill="#bfcce8" fill-rule="evenodd"/>
        <path id="Path_3213" data-name="Path 3213" d="M123.061,271.737Zm2.04-7.769a3.926,3.926,0,1,1-1.149,2.775,3.914,3.914,0,0,1,1.149-2.775Zm.848-3.89a6.91,6.91,0,0,0-2.888,1.672.24.24,0,0,1-.287.034l-1.824-1.052-.01-.007a.455.455,0,0,0-.607.172l-.007.012-1.283,2.223a.456.456,0,0,0,.166.618l.012.007,1.809,1.044a.242.242,0,0,1,.114.266h0a6.987,6.987,0,0,0,0,3.35.24.24,0,0,1-.127.273l-1.808,1.044h0a.457.457,0,0,0-.166.618l1.29,2.234h0a.456.456,0,0,0,.617.166l.014-.007,1.811-1.046a.242.242,0,0,1,.287.036,7.036,7.036,0,0,0,1.349,1.017,6.924,6.924,0,0,0,1.548.658.24.24,0,0,1,.175.232v2.1a.454.454,0,0,0,.451.451h2.582a.454.454,0,0,0,.451-.451v-2.1a.241.241,0,0,1,.185-.235,6.919,6.919,0,0,0,1.538-.655,7.02,7.02,0,0,0,1.35-1.017.241.241,0,0,1,.3-.028l1.811,1.045a.455.455,0,0,0,.617-.166l.008-.012,1.283-2.224h0a.455.455,0,0,0-.165-.617l-1.822-1.052a.242.242,0,0,1-.114-.266h0a6.991,6.991,0,0,0,0-3.35.239.239,0,0,1,.127-.273l1.809-1.045a.456.456,0,0,0,.165-.617l-.007-.013-1.283-2.222h0a.454.454,0,0,0-.617-.166h0l-1.823,1.052a.24.24,0,0,1-.293-.04,6.927,6.927,0,0,0-2.892-1.67.241.241,0,0,1-.176-.232v-2.1a.453.453,0,0,0-.451-.451h-2.582a.453.453,0,0,0-.451.451v2.1A.241.241,0,0,1,125.948,260.079Z" transform="translate(-73.202 -129.945)" fill="#bfcce8" fill-rule="evenodd"/>
        <path id="Path_3214" data-name="Path 3214" d="M260.769,173.46a.673.673,0,0,0-1.346,0v1.583H257.84a.673.673,0,1,0,0,1.346h1.583v1.583a.673.673,0,1,0,1.346,0v-1.583h1.583a.673.673,0,0,0,0-1.346h-1.583Z" transform="translate(-126.519 -97.341)" fill="#bfcce8" fill-rule="evenodd"/>
        <path id="Path_3215" data-name="Path 3215" d="M327.75,93.567Zm2.04-7.769a3.925,3.925,0,1,1-1.149,2.775A3.913,3.913,0,0,1,329.79,85.8Zm.848-3.89a6.921,6.921,0,0,0-1.538.655,7.014,7.014,0,0,0-1.35,1.017.239.239,0,0,1-.287.035l-1.824-1.053-.01-.006a.454.454,0,0,0-.607.172l-.008.012-1.283,2.222a.455.455,0,0,0,.166.618l.012.008,1.809,1.044a.24.24,0,0,1,.114.266h0a6.835,6.835,0,0,0-.152.829,6.986,6.986,0,0,0,.152,2.52.241.241,0,0,1-.128.273L323.9,91.566h0a.454.454,0,0,0-.166.618l1.29,2.235h0a.454.454,0,0,0,.617.166l.014-.007,1.811-1.046a.241.241,0,0,1,.286.035,6.964,6.964,0,0,0,1.35,1.017,6.868,6.868,0,0,0,1.548.658.241.241,0,0,1,.175.232v2.1a.454.454,0,0,0,.451.451h2.581a.454.454,0,0,0,.451-.451v-2.1a.243.243,0,0,1,.185-.235,6.889,6.889,0,0,0,1.538-.655,6.966,6.966,0,0,0,1.35-1.017.239.239,0,0,1,.3-.027l1.812,1.045a.455.455,0,0,0,.617-.166l.008-.012,1.283-2.223h0a.456.456,0,0,0-.165-.617l-1.822-1.052a.241.241,0,0,1-.114-.266h0a6.856,6.856,0,0,0,.152-.829,7.038,7.038,0,0,0,0-1.691,6.846,6.846,0,0,0-.152-.828.241.241,0,0,1,.127-.274l1.809-1.044a.456.456,0,0,0,.165-.617l-.007-.014-1.284-2.222h0a.454.454,0,0,0-.617-.166h0l-1.823,1.053a.241.241,0,0,1-.293-.039,6.977,6.977,0,0,0-1.344-1.013,6.9,6.9,0,0,0-1.548-.658.241.241,0,0,1-.175-.232v-2.1a.453.453,0,0,0-.451-.451h-2.581a.453.453,0,0,0-.451.451v2.1A.242.242,0,0,1,330.638,81.909Z" transform="translate(-152.179 -61.201)" fill="#bfcce8" fill-rule="evenodd"/>
        <path id="Path_3216" data-name="Path 3216" d="M687.463,73.341a.673.673,0,1,0-1.346,0v1.583h-1.583a.673.673,0,1,0,0,1.346h1.583v1.583a.673.673,0,1,0,1.346,0V76.27h1.583a.673.673,0,0,0,0-1.346h-1.583Z" transform="translate(-291.152 -58.712)" fill="#bfcce8" fill-rule="evenodd"/>
        <path id="Path_3217" data-name="Path 3217" d="M48.6,359.266a.673.673,0,1,0-1.346,0v1.583H45.673a.673.673,0,1,0,0,1.346h1.583v1.583a.673.673,0,1,0,1.346,0v-1.583h1.583a.673.673,0,0,0,0-1.346H48.6Z" transform="translate(-44.657 -169.031)" fill="#bfcce8" fill-rule="evenodd"/>
        <path id="Path_3218" data-name="Path 3218" d="M397.707,151.538Zm2.041-7.768a3.926,3.926,0,1,1-1.149,2.775,3.916,3.916,0,0,1,1.149-2.775Zm.848-3.891a6.911,6.911,0,0,0-1.538.655,6.992,6.992,0,0,0-1.35,1.017.238.238,0,0,1-.287.035l-1.824-1.053-.01-.006a.457.457,0,0,0-.607.171l-.007.013-1.283,2.222a.455.455,0,0,0,.166.618l.012.007,1.809,1.044a.241.241,0,0,1,.112.266h0a6.962,6.962,0,0,0-.153.829,7.127,7.127,0,0,0,0,1.691,6.984,6.984,0,0,0,.153.829.241.241,0,0,1-.128.273l-1.808,1.044h0a.455.455,0,0,0-.166.618l1.29,2.236h0a.455.455,0,0,0,.275.209.45.45,0,0,0,.343-.044l.014-.007,1.811-1.045a.241.241,0,0,1,.286.035,6.968,6.968,0,0,0,1.35,1.017,6.869,6.869,0,0,0,1.548.658.242.242,0,0,1,.175.232v2.1a.452.452,0,0,0,.452.451h2.581a.452.452,0,0,0,.451-.451v-2.1a.242.242,0,0,1,.185-.235,6.853,6.853,0,0,0,1.538-.655,6.922,6.922,0,0,0,1.349-1.017.241.241,0,0,1,.3-.028l1.812,1.045a.454.454,0,0,0,.617-.165l.007-.013,1.284-2.223h0a.448.448,0,0,0,.044-.342.454.454,0,0,0-.209-.275l-1.822-1.051a.241.241,0,0,1-.114-.266h0a6.744,6.744,0,0,0,.152-.829,7.046,7.046,0,0,0,0-1.691,6.724,6.724,0,0,0-.152-.829.24.24,0,0,1,.127-.273l1.809-1.044a.456.456,0,0,0,.165-.617l-.008-.013-1.282-2.223h0a.458.458,0,0,0-.618-.166h0l-1.825,1.053a.239.239,0,0,1-.292-.04,6.994,6.994,0,0,0-1.344-1.012,6.912,6.912,0,0,0-1.549-.658.241.241,0,0,1-.175-.232v-2.1a.453.453,0,0,0-.451-.451h-2.581a.453.453,0,0,0-.452.451v2.1A.241.241,0,0,1,400.6,139.879Z" transform="translate(-179.171 -83.568)" fill="#bfcce8" fill-rule="evenodd"/>
        <path id="Path_3219" data-name="Path 3219" d="M358.126,143.862a.673.673,0,1,0-1.346,0v1.583H355.2a.673.673,0,0,0,0,1.347h1.583v1.583a.673.673,0,0,0,1.346,0v-1.583h1.583a.673.673,0,0,0,0-1.347h-1.583Z" transform="translate(-164.083 -85.921)" fill="#bfcce8" fill-rule="evenodd"/>
        <path id="Path_3220" data-name="Path 3220" d="M362.593,265.231a.673.673,0,0,0-1.346,0v1.583h-1.583a.673.673,0,0,0,0,1.347h1.583v1.583a.673.673,0,1,0,1.346,0V268.16h1.583a.673.673,0,0,0,0-1.347h-1.583Z" transform="translate(-165.807 -132.75)" fill="#bfcce8" fill-rule="evenodd"/>
        <path id="Path_3221" data-name="Path 3221" d="M266.541,210.875a.673.673,0,1,0-1.346,0v1.583h-1.583a.673.673,0,1,0,0,1.346h1.583v1.583a.673.673,0,1,0,1.346,0V213.8h1.583a.673.673,0,1,0,0-1.346h-1.583Z" transform="translate(-128.746 -111.777)" fill="#bfcce8" fill-rule="evenodd"/>
      </g>
      <path id="Path_3222" data-name="Path 3222" d="M630.874,204.39a.673.673,0,0,0-1.347,0v1.583h-1.582a.673.673,0,1,0,0,1.346h1.582V208.9a.673.673,0,0,0,1.347,0v-1.583h1.583a.673.673,0,0,0,0-1.346h-1.583Z" transform="translate(-269.318 -109.275)" fill="#bfcce8" fill-rule="evenodd"/>
    </g>
    <g id="Group_3815" data-name="Group 3815" transform="translate(216.434 142.967)">
      <g id="Group_3813" data-name="Group 3813" transform="translate(0 27.113)">
        <path id="Path_3223" data-name="Path 3223" d="M470.206,285.652a17.481,17.481,0,0,1,7.173,5.169c1.788,2.172,23.674,44.1,25.08,46.829s1.4,9.63-1.914,13.876c-1.287,1.65-4.988,6.265-9.032,11.3H478.4c4.761-7.144,10.977-16.486,11.422-17.238.728-1.229,1.094-2.418-.236-4.494s-18.85-23.436-18.85-23.436S462.125,293.575,470.206,285.652Z" transform="translate(-379.374 -261.024)" fill="#0f1630" stroke="#0e1632" stroke-miterlimit="22.926" stroke-width="0.216" fill-rule="evenodd"/>
        <path id="Path_3224" data-name="Path 3224" d="M405.223,280.161s22.068,3.137,23.02,3.372,2.562,2.455,3.43,3.953,1.888,23.038,2.382,29.07-1.452,32.327-.872,39.389c.1,1.172.276,2.821.509,4.759H367.68c-.847-7.81-6.734-32.245-7.215-38.117-.494-6.031-3-27.45-2.382-29.069s1.841-4.071,2.74-4.459,22.421-7.1,22.421-7.1l11.033,1.217Z" transform="translate(-337.411 -258.905)" fill="#cec9d0" fill-rule="evenodd"/>
        <path id="Path_3225" data-name="Path 3225" d="M418.881,280.161l3.648.521a3.157,3.157,0,0,1-.756,1.5c-8.574,9.827-17.335,10.545-27.395,2.245a3.148,3.148,0,0,1-.993-1.363l3.517-1.1,11.033,1.217Z" transform="translate(-351.069 -258.905)" fill="#fff" fill-rule="evenodd"/>
        <path id="Path_3226" data-name="Path 3226" d="M417.231,245.552l.189,5.494s.919,11.21,1.058,12.913c.068.822,1.02,1.94,2.613,2.85-7.215,8.269-13.514,8.786-21.979,1.8,1.424-1.157,2.182-2.414,2.115-3.237-.139-1.7-1.059-12.913-1.059-12.913l-.707-5.451s4.431.346,9.025.968C412.915,246.615,417.231,245.552,417.231,245.552Z" transform="translate(-353.278 -245.552)" fill="#e8685b" fill-rule="evenodd"/>
        <path id="Path_3227" data-name="Path 3227" d="M434.326,280.585s-2.551,11.027-2.741,13.271-3.187,24.837-2.874,28.656c.142,1.737,3.594,19.391,7.352,38.355H466.13c-.737-4.622-1.37-8.608-1.71-10.858-1.222-8.091-2.041-24.907-1.774-35.293s-2.314-25.971-2.621-27.45-3.254-3.328-4.168-3.671Z" transform="translate(-364.69 -259.069)" fill="#0f1630" fill-rule="evenodd"/>
        <path id="Path_3228" data-name="Path 3228" d="M431.034,305.582c-.9,7.444-2.559,21.05-2.322,23.936,0,0,14.624-15.922,14.4-17.492s-6.172-13.283-6.172-13.283S434.386,301.682,431.034,305.582Z" transform="translate(-364.69 -266.075)" fill="#3d4155" fill-rule="evenodd"/>
        <path id="Path_3229" data-name="Path 3229" d="M434.631,280.038s.647-.579.878-.6,4.2,1.324,4.2,1.324,5.788,9.1,5.883,10.261-14.213,12.869-14.213,12.869l1.268-10.7s2.074-10.464,2.718-13.047Z" transform="translate(-365.728 -258.627)" fill="#545a6c" fill-rule="evenodd"/>
        <path id="Path_3230" data-name="Path 3230" d="M348.154,294.614a17.48,17.48,0,0,0-6.235,6.269c-1.411,2.434-16.179,47.366-17.121,50.287s.184,9.73,4.147,13.38c.429.4,1.082.988,1.9,1.73H347.21c-4.334-4.648-8.258-8.867-8.655-9.339-.919-1.094-1.472-2.209-.5-4.475s14.782-26.192,14.782-26.192S357.417,301.115,348.154,294.614Z" transform="translate(-324.484 -264.482)" fill="#0f1630" fill-rule="evenodd"/>
        <path id="Path_3231" data-name="Path 3231" d="M380.993,284s4.313,10.465,4.865,12.649,7.188,23.986,7.5,27.8c.139,1.7-.367,18.914-.969,37.734H362.648c-.013-1.964-.028-3.613-.043-4.79-.112-8.181-2.042-24.907-4-35.111s-1.944-26-1.882-27.511,2.669-3.813,3.514-4.3Z" transform="translate(-336.918 -260.385)" fill="#0f1630" fill-rule="evenodd"/>
        <path id="Path_3232" data-name="Path 3232" d="M399.48,308.39c2.1,7.2,5.951,20.353,6.188,23.239,0,0-17.022-13.329-17.058-14.914s3.927-14.11,3.927-14.11S395.537,305.089,399.48,308.39Z" transform="translate(-349.226 -267.565)" fill="#3d4155" fill-rule="evenodd"/>
        <path id="Path_3233" data-name="Path 3233" d="M391.728,283.352a3.235,3.235,0,0,0-.963-.448c-.232.018-3.928,1.99-3.928,1.99s-4.23,9.92-4.134,11.083,16.118,10.382,16.118,10.382L395.827,296s-3.749-9.986-4.805-12.43Z" transform="translate(-346.947 -259.964)" fill="#545a6c" fill-rule="evenodd"/>
      </g>
      <g id="Group_3814" data-name="Group 3814" transform="translate(33.14 27.484)">
        <path id="Path_3234" data-name="Path 3234" d="M381.979,250.993c-.111.025-.219.054-.327.087h0a4.541,4.541,0,1,0,3.856.565c.237,1.324.175,2.995-1.513,3.316l-.188-2.611A1.561,1.561,0,0,0,381.979,250.993Z" transform="translate(-378.445 -248.017)" fill="#e8685b" fill-rule="evenodd"/>
        <path id="Path_3235" data-name="Path 3235" d="M434.356,246.156c.114.005.225.013.337.026h0A4.541,4.541,0,1,1,431,247.436c.007,1.345.37,2.977,2.088,2.987l-.287-2.6A1.56,1.56,0,0,1,434.356,246.156Z" transform="translate(-398.193 -246.156)" fill="#e8685b" fill-rule="evenodd"/>
      </g>
      <path id="Path_3236" data-name="Path 3236" d="M398.533,211.77h0a15.588,15.588,0,0,0-14.064,16.89l1.284,14.079A15.589,15.589,0,0,0,402.639,256.8h0a15.588,15.588,0,0,0,14.065-16.89l-1.284-14.078A15.589,15.589,0,0,0,398.533,211.77Z" transform="translate(-347.603 -205.38)" fill="#f4ad85" fill-rule="evenodd"/>
      <path id="Path_3237" data-name="Path 3237" d="M385.424,226.727a15.389,15.389,0,0,0-.958,6.928l1.284,14.078a15.6,15.6,0,0,0,15.412,14.129c-9-.692-10.664-11.326-11.352-16.925s1.41-6.854,2.244-7.132,13.9-2.447,16.792-2.78a5.158,5.158,0,0,1,4.345,1.27l1.215-1.771-1.168-3.781s1,.033,2.174,0a15.482,15.482,0,0,0-.571-2.926,24.646,24.646,0,0,1-5.106-2.3c-3.447-2.224-19.906.556-22.574.556A4.181,4.181,0,0,0,385.424,226.727Z" transform="translate(-347.603 -210.377)" fill="#ed9072" fill-rule="evenodd"/>
      <path id="Path_3238" data-name="Path 3238" d="M409.282,229.331s.094,1.035.182,2,1.077,1.951,1.814,1.884l-.2-2.18a2.178,2.178,0,0,1,2.152-1.817c5.453-7.56,3.635-18.6-3.393-23.776s-21.031-4.267-23.4-3.231-4.5,5.4-4.5,5.4-2.239-1.659-4.073-.523-7.158,13.842-6.881,16.872,6.69,8.5,6.69,8.5a2.176,2.176,0,0,1,2.444,1.4l.2,2.18a2.142,2.142,0,0,0,1.444-2.181l-.182-2c.069-.038.137-.079.2-.119,1.877-1.22,1.5-4.945,1.5-4.945l-1.729-2.42L385,219.859l3.95-1.3,8.974.344s10.582,1.316,9.655,4.395S409.282,229.331,409.282,229.331Z" transform="translate(-342.424 -201.406)" fill="#0e1632" fill-rule="evenodd"/>
      <path id="Path_3239" data-name="Path 3239" d="M409.282,234.151c.107,1.186.9,6.483,2.282,6.357,4.117-8.672,7.919-17.724,1.786-26.608-.722,5.717-6.417,9.2-12.12,10.4,3.017.657,6.923,1.892,6.345,3.814-.926,3.081,1.707,6.033,1.707,6.033Zm-37.9-8.034a8.988,8.988,0,0,0-.395,2.66c.213,2.336,7.987,13.611,9.713,16.174.9-.082,1.019-6.761.881-8.273.069-.039.136-.078.2-.119,1.877-1.22,1.5-4.945,1.5-4.945l-1.729-2.42L385,224.679l3.768-1.239a5.524,5.524,0,0,1-2.444-1.569C378.53,229.75,374.01,229.32,371.384,226.117Z" transform="translate(-342.424 -206.227)" fill="#010518" fill-rule="evenodd"/>
      <path id="Path_3240" data-name="Path 3240" d="M381.078,232.784s-6.511-14.116,6.586-16.53c0,0,3.467-6.844,10.412-5.128s11.293,1.668,14.408-1.4c0,0,1.787,3.362-.383,6.3,6.575,5.1,4.291,11.642,1.6,15.172-1.078-7.316-20.351.828-22.871-6.2C390.582,231.715,383.537,230.043,381.078,232.784Z" transform="translate(-345.696 -204.616)" fill="#0e1632" fill-rule="evenodd"/>
      <path id="Path_3241" data-name="Path 3241" d="M381.11,237.841a20.4,20.4,0,0,1-1.569-6.15c2.532-.241,5.816-2.059,10.082-6.375,0,0,1.742,2.56,9.787,2.891,4.886.2,11.1-1.607,14.6-5.375,4.186,4.77,2.117,10.286-.274,13.424-1.078-7.316-20.35.828-22.871-6.2C390.613,236.772,383.569,235.1,381.11,237.841Z" transform="translate(-345.727 -209.673)" fill="#010518" fill-rule="evenodd"/>
    </g>
    <g id="Group_3819" data-name="Group 3819" transform="translate(399.5 167.113)">
      <g id="Group_3816" data-name="Group 3816" transform="translate(1.433)">
        <path id="Path_3242" data-name="Path 3242" d="M665.054,246.265c-2.754-10.325-12.375-4.647-16.493,4.192s-13.553,43.32-21.709,52.248c-3.162,3.46-2.194,3.751.712,2.066C642.061,296.367,668.845,260.477,665.054,246.265Z" transform="translate(-624.89 -240.722)" fill="#12afa0" fill-rule="evenodd"/>
        <path id="Path_3243" data-name="Path 3243" d="M624.9,307.9c-.1.464.337.486,1.164.144,21.979-18.588,33.65-60.142,33.688-60.275a.43.43,0,1,0-.828-.236C658.89,247.668,647.059,289.788,624.9,307.9Z" transform="translate(-624.89 -243.229)" fill="#0076bd" fill-rule="evenodd"/>
      </g>
      <g id="Group_3817" data-name="Group 3817" transform="translate(0.201 7.823)">
        <path id="Path_3244" data-name="Path 3244" d="M639.925,256.685c-4.8-7.528-11.032-.575-12.077,7.507s.152,37.93-4.089,47.1c-1.644,3.555-.8,3.543,1.089,1.466C634.272,302.4,646.536,267.048,639.925,256.685Z" transform="translate(-622.884 -253.46)" fill="#59d0c4" fill-rule="evenodd"/>
        <path id="Path_3245" data-name="Path 3245" d="M622.89,316.075c.037.4.391.3.962-.18,12.809-20.36,11.6-56.407,11.6-56.522a.359.359,0,1,0-.719.021C634.738,259.509,635.959,296.049,622.89,316.075Z" transform="translate(-622.886 -255.606)" fill="#05304b" fill-rule="evenodd"/>
      </g>
      <g id="Group_3818" data-name="Group 3818" transform="translate(0 36.626)">
        <path id="Path_3246" data-name="Path 3246" d="M663.609,300.4c8.3.865,5.094,8.98-1.223,13.234s-31.764,15.736-37.656,23.115c-2.284,2.861-2.626,2.15-1.681-.3C627.764,324.243,652.184,299.207,663.609,300.4Z" transform="translate(-622.557 -300.357)" fill="#73d8ce" fill-rule="evenodd"/>
        <path id="Path_3247" data-name="Path 3247" d="M622.894,341.076c-.346.133-.415-.2-.252-.88,11.659-19.22,42.29-33.289,42.388-33.335a.336.336,0,0,1,.283.61C665.214,307.516,634.165,321.777,622.894,341.076Z" transform="translate(-622.557 -302.854)" fill="#05304b" fill-rule="evenodd"/>
      </g>
    </g>
    <g id="Group_3820" data-name="Group 3820" transform="translate(295.601 59.994)">
      <path id="Path_3248" data-name="Path 3248" d="M495.1,283.536l-2.061,18.11s3.115,42.412,4.647,60.359h23.129l.508-72.183Z" transform="translate(-468.684 -150.122)" fill="#0e1632" fill-rule="evenodd"/>
      <path id="Path_3249" data-name="Path 3249" d="M515.723,309.038l-1.018,6.4,2.027,56.361h28.2c.47-3.9.895-7.237,1.239-9.641a369,369,0,0,0,2.833-40.3c-.01-4.876-5.657-12.112-7.6-12.642S515.723,309.038,515.723,309.038Z" transform="translate(-477.045 -159.917)" fill="#0e1632" fill-rule="evenodd"/>
      <path id="Path_3250" data-name="Path 3250" d="M482.632,166.483s-.963-1.792-1.723-1.456-26.291,37.9-27.156,41.136-.509,8.962,4.432,16.914,15.514,27.47,15.887,27.89,6.151-3.5,6.767-4.59c0,0,.253-.36-.117-1.091s-12.939-30.5-13.735-32.64,21.6-28.641,22.665-30.76S494.836,168.645,482.632,166.483Z" transform="translate(-453.385 -104.38)" fill="#171c3a" fill-rule="evenodd"/>
      <path id="Path_3251" data-name="Path 3251" d="M520.41,149.9l-11.118,7.942s-7.932,31.055-7.963,32.467-3.068,18.537-3.068,18.537,11.118,4.412,12.706.176,19.414-34.59,20.3-39.356-1.236-16.06-2.294-17.295S520.41,149.9,520.41,149.9Z" transform="translate(-470.7 -98.562)" fill="#c9c4d1" fill-rule="evenodd"/>
      <path id="Path_3252" data-name="Path 3252" d="M504.024,158.422s-10.069,3.543-11,4.073-6.365,20.349-6.806,22.2,2.471,35.825,2.471,38.826-3.794,40.5-3.883,41.12a1.11,1.11,0,0,0,1.147,1.324c.883,0,10.766-18.618,11.56-20.736s-1.777-34.059-1.777-34.059l6.72-45.711Z" transform="translate(-465.505 -101.848)" fill="#171c3a" fill-rule="evenodd"/>
      <path id="Path_3253" data-name="Path 3253" d="M539.166,166.6s14.432,14.546,14.962,15.429-14.471,50.562-14.647,52.856,7.413,36.091,7.678,36.973a1.706,1.706,0,0,1-.221.883,3.293,3.293,0,0,1-1.191,1.059c-.31.22-35.605-5.472-38.43-7.237s-8.912-29.207-8.912-32.913,2.135-17.891,2.135-17.891l17.367-29.407S530.453,167.535,539.166,166.6Z" transform="translate(-470.756 -105.003)" fill="#1c2344" fill-rule="evenodd"/>
      <path id="Path_3254" data-name="Path 3254" d="M554.669,162.876s16.718,16.834,17.248,17.716-14.471,50.562-14.647,52.856,7.413,36.091,7.678,36.973a1.706,1.706,0,0,1-.221.883,3.29,3.29,0,0,1-1.191,1.059c-.159.113-9.548-1.333-19.025-3.006,8.221-11.85,7.792-31.482,7.075-32.676-.833-1.391-5.227-4.392-4.56-4.615s5.171-.334,5.5-1.445,6.669-36.293,6.669-36.293l4.229-2.852s1.891-13.678.556-15.68-10.135-9.571-10.207-9.632C554.871,165.626,553.652,162.985,554.669,162.876Z" transform="translate(-488.544 -103.567)" fill="#101937" fill-rule="evenodd"/>
      <path id="Path_3255" data-name="Path 3255" d="M578.167,188.111a25.174,25.174,0,0,1,3.7,3.714c1.512,1.972,20.344,41.338,20.733,45.027s-.989,9.9-7.774,17.762-21.735,27.409-22.217,27.805-6.133-4.89-6.619-6.2c0,0-.216-.437.316-1.175s19.44-31.177,20.68-33.38-18.711-35.1-19.515-37.606S564.426,188.372,578.167,188.111Z" transform="translate(-496.814 -113.303)" fill="#383d5d" fill-rule="evenodd"/>
      <path id="Path_3256" data-name="Path 3256" d="M539.147,127.4c.1,5.5-1.325,11.185-.964,16.694.074,1.124.612,1.5,2,2.4,1.92,2.858-3.332,11.9-6.786,12.433-.229.036-5.855-4.377-9.84-5.4-2.045-.525-3.73,2.087-3.883,1.975-.828-.6.953-5.277.373-7.051.7-.188,1.325-1.753,1.823-2.21,3.229-2.978,2.175-10.411-.47-13.22C519.422,130.919,539.147,127.4,539.147,127.4Z" transform="translate(-478.875 -89.877)" fill="#ed9072" fill-rule="evenodd"/>
      <path id="Path_3257" data-name="Path 3257" d="M545.4,157.06c-.439,1.244-11.107,15.482-11.107,15.482s-.381.512-.939-.137-7.13-9.822-7.13-9.822l14.6-10.876-.333-2.5C540.7,148.976,545.852,155.781,545.4,157.06Z" transform="translate(-481.49 -98.29)" fill="#fff" fill-rule="evenodd"/>
      <path id="Path_3258" data-name="Path 3258" d="M522.307,154.442c0-.007-.016-.021-.056-.025-4.99-.352-5.746,13.785-4.869,16.556.006.018,3.032-4.626,5.118-6.475C523.445,163.663,520.491,157.275,522.307,154.442Z" transform="translate(-477.956 -100.3)" fill="#fff" fill-rule="evenodd"/>
      <path id="Path_3259" data-name="Path 3259" d="M534.75,155.381s-18.663,23.136-19.987,25.076-11.471,25.855-12.883,30.973c0,0,15.619-19.5,17.825-21.266s10.37-8.56,10.37-8.56a1.18,1.18,0,0,0,.11-.751c-.11-.308-2.382-5.448-2.382-5.448s6.794,1.015,7.412.97,3.668-15.2,3.756-15.645S534.75,155.381,534.75,155.381Z" transform="translate(-472.097 -100.675)" fill="#383d5d" fill-rule="evenodd"/>
      <path id="Path_3260" data-name="Path 3260" d="M516.771,154.4a54.608,54.608,0,0,0-5.731,1.585c-.793.442-7.059,10.854-7.235,11.736a.554.554,0,0,0,.264.6,18.313,18.313,0,0,1,1.788,1.125,10.728,10.728,0,0,1-2.185.4s-.264.1-.22.508-.836,39.268-.836,39.268,7.7-42.97,8.842-45.8a51.855,51.855,0,0,1,4.205-7.3Z" transform="translate(-472.38 -100.298)" fill="#383d5d" fill-rule="evenodd"/>
      <path id="Path_3261" data-name="Path 3261" d="M509.243,114.362a4.4,4.4,0,1,1-4.377,4.426A4.4,4.4,0,0,1,509.243,114.362Z" transform="translate(-473.249 -84.848)" fill="#e8685b" fill-rule="evenodd"/>
      <path id="Path_3262" data-name="Path 3262" d="M557.068,114.089a4.4,4.4,0,1,1-4.376,4.425A4.4,4.4,0,0,1,557.068,114.089Z" transform="translate(-491.701 -84.743)" fill="#e8685b" fill-rule="evenodd"/>
      <path id="Path_3263" data-name="Path 3263" d="M524.014,77.529h0c8.291-.05,15.112,7.306,15.158,16.348l.076,14.94c.045,9.042-6.7,16.48-14.991,16.531h0c-8.291.05-15.112-7.306-15.159-16.347l-.076-14.941C508.978,85.018,515.723,77.579,524.014,77.529Z" transform="translate(-474.853 -70.637)" fill="#f4ad85" fill-rule="evenodd"/>
      <path id="Path_3264" data-name="Path 3264" d="M538.587,92.185a17.672,17.672,0,0,1,.586,4.441l.076,14.94c.042,8.314-5.658,15.272-13.022,16.377-.723.076-1.187.122-1.287.132h-.007c8.233-.815,9.976-11.63,9.976-14.891v-8.469c0-8-4.429-8.838-7.459-8.838H512.417a2.937,2.937,0,0,0-2.642,1.787l-.749-.569v-.287a17.12,17.12,0,0,1,4.861-12.156c7.548,1.475,20.1,3.982,20.966,4.523C535.321,89.47,536.858,90.73,538.587,92.185Z" transform="translate(-474.853 -73.386)" fill="#ed9072" fill-rule="evenodd"/>
      <path id="Path_3265" data-name="Path 3265" d="M505.186,91.011l2.708,2.718s1.3-5.054,12.216-3.5-10.067-10.147-12.444-8.869S503.217,86.4,505.186,91.011Z" transform="translate(-473.069 -72.079)" fill="#01020e" fill-rule="evenodd"/>
      <path id="Path_3266" data-name="Path 3266" d="M531.205,85.483s-10.745,1.179-16.214-2.294-10.1-5.082-11.5-3.2c-1.33,1.79,4.018,6.621,1.866,14.84-.117.446-.4,8.047-.562,8.514-.052-2.974-1-10.574-1.991-12.476-2.941-5.677-7.542-9.946-1.567-18.46,3.668-5.225,9.9-7.674,12.792-5.03,9.431,8.615,22.415-2.578,22.494,11.7,0,0,6.995,2.355.494,16.667a1.858,1.858,0,0,0-1.921,2.064l.058,7.641C529.9,105.451,529.8,91.681,531.205,85.483Z" transform="translate(-470.725 -66.307)" fill="#0e1632" fill-rule="evenodd"/>
    </g>
    <g id="Group_3823" data-name="Group 3823" transform="translate(330.572 208.573)">
      <g id="Group_3821" data-name="Group 3821" transform="translate(12.124)">
        <path id="Rectangle_522" data-name="Rectangle 522" d="M4.352,0H31.4a4.352,4.352,0,0,1,4.352,4.352V53.27A4.353,4.353,0,0,1,31.4,57.622H4.352A4.352,4.352,0,0,1,0,53.271V4.352A4.352,4.352,0,0,1,4.352,0Z" transform="translate(6.085)" fill="#e2e1e7"/>
        <rect id="Rectangle_523" data-name="Rectangle 523" width="29.095" height="57.622" rx="3.662" transform="translate(37.585)" fill="#fff"/>
        <path id="Path_3267" data-name="Path 3267" d="M530.066,339.921h31.5c0-5.645,6.085-6.269,6.085-6.269h-31.5S530.066,334.276,530.066,339.921Z" transform="translate(-530.066 -318.037)" fill="#fff" fill-rule="evenodd"/>
        <rect id="Rectangle_524" data-name="Rectangle 524" width="36.119" height="14.956" rx="2.865" transform="translate(4.325 48.349)" fill="#079f90"/>
        <path id="Path_3268" data-name="Path 3268" d="M590.279,386.95h7.159a3.371,3.371,0,0,1,2.883,2.2c1.027,2.236.917,4.472,3.96,4.472h1.309c3.043,0,2.957-2.288,3.96-4.472a3.288,3.288,0,0,1,2.883-2.2h6.793a1.765,1.765,0,0,1,1.76,1.76v11.436a1.766,1.766,0,0,1-1.76,1.76H590.279a1.765,1.765,0,0,1-1.76-1.76V388.71A1.765,1.765,0,0,1,590.279,386.95Z" transform="translate(-552.619 -338.601)" fill="#12afa0" fill-rule="evenodd"/>
        <path id="Path_3269" data-name="Path 3269" d="M530.066,372.065h31.5c0-5.645,6.085-6.268,6.085-6.268h-31.5S530.066,366.42,530.066,372.065Z" transform="translate(-530.066 -330.44)" fill="#fff" fill-rule="evenodd"/>
        <path id="Path_3270" data-name="Path 3270" d="M625.48,356.741H596.832c0-5.645-5.568-6.268-5.568-6.268h28.647S625.48,351.1,625.48,356.741Z" transform="translate(-553.678 -324.527)" fill="#acabbb" fill-rule="evenodd"/>
        <path id="Path_3271" data-name="Path 3271" d="M598.078,318.42h21.958a.971.971,0,0,1,.968.968h0a.971.971,0,0,1-.968.968H598.078a.97.97,0,0,1-.967-.968h0A.97.97,0,0,1,598.078,318.42Z" transform="translate(-555.934 -312.16)" fill="#e2e1e7" fill-rule="evenodd"/>
        <path id="Path_3272" data-name="Path 3272" d="M598.078,335.787h21.958a.971.971,0,0,1,.968.968h0a.972.972,0,0,1-.968.969H598.078a.971.971,0,0,1-.967-.969h0A.97.97,0,0,1,598.078,335.787Z" transform="translate(-555.934 -318.861)" fill="#e2e1e7" fill-rule="evenodd"/>
        <path id="Path_3273" data-name="Path 3273" d="M598.078,372.053h21.958a.971.971,0,0,1,.968.968h0a.971.971,0,0,1-.968.968H598.078a.97.97,0,0,1-.967-.968h0A.97.97,0,0,1,598.078,372.053Z" transform="translate(-555.934 -332.854)" fill="#e2e1e7" fill-rule="evenodd"/>
        <path id="Path_3274" data-name="Path 3274" d="M546.945,317.143h21.211a.971.971,0,0,1,.968.968h0a.971.971,0,0,1-.968.968H546.945a.971.971,0,0,1-.968-.968h0A.97.97,0,0,1,546.945,317.143Z" transform="translate(-536.205 -311.667)" fill="#acabbb" fill-rule="evenodd"/>
        <rect id="Rectangle_525" data-name="Rectangle 525" width="23.148" height="1.936" rx="0.968" transform="translate(9.772 29.499)" fill="#acabbb"/>
        <path id="Path_3275" data-name="Path 3275" d="M546.945,381.288h21.211a.971.971,0,0,1,.968.968h0a.971.971,0,0,1-.968.968H546.945a.971.971,0,0,1-.968-.968h0A.97.97,0,0,1,546.945,381.288Z" transform="translate(-536.205 -336.417)" fill="#acabbb" fill-rule="evenodd"/>
      </g>
      <g id="Group_3822" data-name="Group 3822" transform="translate(0 24.994)">
        <rect id="Rectangle_526" data-name="Rectangle 526" width="21.637" height="34.871" rx="2.634" transform="translate(3.682)" fill="#e2e1e7"/>
        <path id="Rectangle_527" data-name="Rectangle 527" d="M2.216,0H15.392a2.215,2.215,0,0,1,2.215,2.215V32.655a2.216,2.216,0,0,1-2.216,2.216H2.216A2.216,2.216,0,0,1,0,32.655V2.216A2.216,2.216,0,0,1,2.216,0Z" transform="translate(22.746)" fill="#fff"/>
        <path id="Path_3276" data-name="Path 3276" d="M510.326,368.1h19.063c0-3.415,3.683-3.793,3.683-3.793H514.008S510.326,364.688,510.326,368.1Z" transform="translate(-510.326 -354.86)" fill="#fff" fill-rule="evenodd"/>
        <path id="Path_3351" data-name="Path 3351" d="M1.733,0H20.124a1.734,1.734,0,0,1,1.734,1.734V7.316a1.734,1.734,0,0,1-1.734,1.734H1.734A1.734,1.734,0,0,1,0,7.316V1.733A1.733,1.733,0,0,1,1.733,0Z" transform="translate(2.618 29.26)" fill="#079f90"/>
        <path id="Path_3277" data-name="Path 3277" d="M546.765,396.565H551.1a2.042,2.042,0,0,1,1.745,1.331c.621,1.353.555,2.707,2.4,2.707h.793c1.841,0,1.79-1.385,2.4-2.707a1.987,1.987,0,0,1,1.745-1.331h4.111a1.068,1.068,0,0,1,1.064,1.065v6.92a1.068,1.068,0,0,1-1.064,1.066H546.765a1.068,1.068,0,0,1-1.066-1.066v-6.92A1.068,1.068,0,0,1,546.765,396.565Z" transform="translate(-523.974 -367.305)" fill="#12afa0" fill-rule="evenodd"/>
        <path id="Path_3278" data-name="Path 3278" d="M510.326,387.557h19.063c0-3.417,3.683-3.793,3.683-3.793H514.008S510.326,384.141,510.326,387.557Z" transform="translate(-510.326 -362.366)" fill="#fff" fill-rule="evenodd"/>
        <path id="Path_3279" data-name="Path 3279" d="M568.068,378.283H550.731a3.791,3.791,0,0,0-3.37-3.793H564.7A3.791,3.791,0,0,1,568.068,378.283Z" transform="translate(-524.615 -358.788)" fill="#acabbb" fill-rule="evenodd"/>
        <path id="Path_3280" data-name="Path 3280" d="M551.485,355.092h13.288a.587.587,0,0,1,.586.586h0a.587.587,0,0,1-.586.586H551.485a.588.588,0,0,1-.586-.586h0A.588.588,0,0,1,551.485,355.092Z" transform="translate(-525.98 -351.304)" fill="#e2e1e7" fill-rule="evenodd"/>
        <path id="Path_3281" data-name="Path 3281" d="M551.485,365.6h13.288a.586.586,0,0,1,.586.585h0a.587.587,0,0,1-.586.586H551.485a.588.588,0,0,1-.586-.586h0A.587.587,0,0,1,551.485,365.6Z" transform="translate(-525.98 -355.359)" fill="#e2e1e7" fill-rule="evenodd"/>
        <path id="Path_3282" data-name="Path 3282" d="M551.485,387.549h13.288a.587.587,0,0,1,.586.586h0a.587.587,0,0,1-.586.586H551.485a.588.588,0,0,1-.586-.586h0A.588.588,0,0,1,551.485,387.549Z" transform="translate(-525.98 -363.827)" fill="#e2e1e7" fill-rule="evenodd"/>
        <path id="Rectangle_529" data-name="Rectangle 529" d="M.586,0H13.422a.585.585,0,0,1,.585.585v0a.585.585,0,0,1-.585.585H.586A.586.586,0,0,1,0,.586v0A.586.586,0,0,1,.586,0Z" transform="translate(5.914 3.313)" fill="#acabbb"/>
        <path id="Rectangle_530" data-name="Rectangle 530" d="M.586,0H13.422a.586.586,0,0,1,.586.586v0a.586.586,0,0,1-.586.586H.586A.586.586,0,0,1,0,.586v0A.586.586,0,0,1,.586,0Z" transform="translate(5.914 17.852)" fill="#acabbb"/>
        <path id="Path_3283" data-name="Path 3283" d="M520.541,393.138h12.837a.587.587,0,0,1,.585.586h0a.588.588,0,0,1-.585.586H520.541a.588.588,0,0,1-.586-.586h0A.587.587,0,0,1,520.541,393.138Z" transform="translate(-514.041 -365.983)" fill="#acabbb" fill-rule="evenodd"/>
      </g>
    </g>
    <g id="Group_3825" data-name="Group 3825" transform="translate(86.576 184.797)">
      <path id="Path_3284" data-name="Path 3284" d="M182.608,271.772l25.168.119a.6.6,0,0,1,.6.6l-.006,2.633a.6.6,0,0,1-.6.6l-25.167-.119a.6.6,0,0,1-.6-.6l.006-2.633a.6.6,0,0,1,.6-.6Zm24.566,1.319-23.967-.116,0,1.432,23.967.116Z" transform="translate(-139.651 -270.386)" fill="#0e1632" fill-rule="evenodd"/>
      <g id="Group_3824" data-name="Group 3824" transform="translate(8.851 0)">
        <path id="Path_3285" data-name="Path 3285" d="M129.057,309.065l33.252-37.89a.6.6,0,0,1,.848-.058l1.979,1.737a.6.6,0,0,1,.057.848l-33.251,37.89a.6.6,0,0,1-.848.057l-1.979-1.737a.6.6,0,0,1-.058-.848Zm33.759-36.647-32.459,36.987,1.076.945,32.459-36.987Z" transform="translate(-128.017 -270.077)" fill="#0e1632" fill-rule="evenodd"/>
        <path id="Path_3286" data-name="Path 3286" d="M181.7,269.543a3.351,3.351,0,1,1-2.9,3.746A3.351,3.351,0,0,1,181.7,269.543Z" transform="translate(-147.254 -269.516)" fill="#383d5d" fill-rule="evenodd"/>
        <path id="Path_3287" data-name="Path 3287" d="M129.073,331.971l23.38,44.662a.6.6,0,0,0,.81.255l2.333-1.221a.6.6,0,0,0,.255-.811L132.472,330.2a.6.6,0,0,0-.809-.255l-2.333,1.222a.6.6,0,0,0-.255.809Zm24.166,43.574-22.822-43.6,1.268-.664,22.823,43.6Z" transform="translate(-128.054 -292.804)" fill="#0e1632" fill-rule="evenodd"/>
        <path id="Path_3288" data-name="Path 3288" d="M165.657,403.691a3.351,3.351,0,1,0-1.938-4.326A3.352,3.352,0,0,0,165.657,403.691Z" transform="translate(-141.363 -318.784)" fill="#383d5d" fill-rule="evenodd"/>
        <path id="Path_3289" data-name="Path 3289" d="M130.386,328.014a3.351,3.351,0,1,1-2.9,3.746A3.351,3.351,0,0,1,130.386,328.014Z" transform="translate(-127.456 -292.076)" fill="#383d5d" fill-rule="evenodd"/>
      </g>
      <rect id="Rectangle_531" data-name="Rectangle 531" width="55.175" height="8.466" rx="4.233" transform="translate(0 82.068)" fill="#383d5d"/>
      <rect id="Rectangle_532" data-name="Rectangle 532" width="55.175" height="8.466" rx="4.233" transform="translate(16.642 82.068)" fill="#0e1632"/>
      <path id="Path_3290" data-name="Path 3290" d="M211.071,281.682h12.311a6.513,6.513,0,0,0,6.494-6.494h-25.3A6.512,6.512,0,0,0,211.071,281.682Z" transform="translate(-148.361 -271.704)" fill="#fff" fill-rule="evenodd"/>
      <path id="Path_3291" data-name="Path 3291" d="M213.078,281.2h7.4a3.913,3.913,0,0,0,3.9-3.9h-15.2A3.913,3.913,0,0,0,213.078,281.2Z" transform="translate(-150.136 -272.519)" fill="#dff0f2" fill-rule="evenodd"/>
      <path id="Path_3292" data-name="Path 3292" d="M205.289,270.336H225.88a4.981,4.981,0,0,1,4.967,4.967H200.322A4.981,4.981,0,0,1,205.289,270.336Z" transform="translate(-146.719 -269.832)" fill="#383d5d" fill-rule="evenodd"/>
      <path id="Path_3293" data-name="Path 3293" d="M205.289,270.336H214.7a4.982,4.982,0,0,1,4.967,4.967H200.322A4.981,4.981,0,0,1,205.289,270.336Z" transform="translate(-146.719 -269.832)" fill="#01020e" fill-rule="evenodd"/>
    </g>
    <g id="Group_3826" data-name="Group 3826" transform="translate(389.911 84.323)">
      <path id="Path_3294" data-name="Path 3294" d="M610.717,114.512a.454.454,0,0,1-.74-.527,19.241,19.241,0,1,1-3.02,15.828.454.454,0,1,1,.882-.217,18.357,18.357,0,1,0,2.878-15.084Z" transform="translate(-606.944 -105.921)" fill="#0e1632" fill-rule="evenodd"/>
      <path id="Path_3295" data-name="Path 3295" d="M643.746,122.957a10.06,10.06,0,0,0-2.761,4.87c.755.5,2.838,2.1,1.861,3.788l-4.063,7.034c-.988,1.644-3.381.649-4.19.25a10.049,10.049,0,0,0-2.837,4.826,6.365,6.365,0,0,0,3.729.788,4.011,4.011,0,0,0,2.967-1.667l7.891-13.667a4.034,4.034,0,0,0-.05-3.388,6.359,6.359,0,0,0-2.546-2.833Zm-3.6,4.943c1.084-4.012,3.113-5.574,3.323-5.727a.393.393,0,0,1,.444-.031,7.245,7.245,0,0,1,3.1,3.342,4.835,4.835,0,0,1,.011,4.078l-7.9,13.674a4.82,4.82,0,0,1-3.552,2.054,7.234,7.234,0,0,1-4.426-1,.392.392,0,0,1-.212-.38c0-.007.208-2.656,3.288-5.754a.391.391,0,0,1,.486-.076c.008,0,2.608,1.505,3.406.162l4.051-7.018c.755-1.308-1.612-2.75-1.82-2.874A.392.392,0,0,1,640.15,127.9Z" transform="translate(-616.201 -112.159)" fill="#0e1632" fill-rule="evenodd"/>
      <text id="_24" data-name="24" transform="translate(2.937 21.527)" fill="#0e1632" font-size="14" font-family="Helvetica"><tspan x="0" y="0">24</tspan></text>
    </g>
    <g id="Group_3828" data-name="Group 3828" transform="translate(278.895 69.215)">
      <path id="Path_3296" data-name="Path 3296" d="M436.2,85.647h26.225a4.1,4.1,0,0,1,4.087,4.087v22.844a.456.456,0,0,1-.778.322l-6.965-6.964H436.2a4.1,4.1,0,0,1-4.087-4.087V89.734A4.1,4.1,0,0,1,436.2,85.647Z" transform="translate(-428.471 -82.99)" fill="#bfcce8" fill-rule="evenodd"/>
      <g id="Group_3827" data-name="Group 3827">
        <path id="Path_3297" data-name="Path 3297" d="M430.811,81.321h26.226a4.639,4.639,0,0,1,4.626,4.627v22.843a1,1,0,0,1-.615.92h0a.988.988,0,0,1-1.084-.215l-6.806-6.806H430.811a4.637,4.637,0,0,1-4.626-4.627V85.948a4.638,4.638,0,0,1,4.626-4.627Zm26.226,1.08H430.811a3.56,3.56,0,0,0-3.547,3.547V98.063a3.56,3.56,0,0,0,3.547,3.547H453.6l6.979,6.98V85.948a3.557,3.557,0,0,0-3.546-3.547Z" transform="translate(-426.185 -81.321)" fill="#fff" fill-rule="evenodd"/>
        <path id="Path_3298" data-name="Path 3298" d="M433.177,88.3a.3.3,0,1,1,0-.591h26.661a.3.3,0,1,1,0,.591Z" transform="translate(-428.769 -83.788)" fill="#fff" fill-rule="evenodd"/>
        <path id="Path_3299" data-name="Path 3299" d="M433.177,93a.3.3,0,1,1,0-.591H436A.3.3,0,0,1,436,93Zm6.584,0a.3.3,0,1,1,0-.591h20.077a.3.3,0,1,1,0,.591Z" transform="translate(-428.769 -85.598)" fill="#fff" fill-rule="evenodd"/>
        <path id="Path_3300" data-name="Path 3300" d="M433.177,97.688a.3.3,0,1,1,0-.591h26.661a.3.3,0,1,1,0,.591Z" transform="translate(-428.769 -87.408)" fill="#fff" fill-rule="evenodd"/>
        <path id="Path_3301" data-name="Path 3301" d="M445.25,104.048a.3.3,0,0,1,0-.591H464.5a.3.3,0,1,1,0,.591Z" transform="translate(-433.427 -89.862)" fill="#fff" fill-rule="evenodd"/>
        <path id="Path_3302" data-name="Path 3302" d="M459.244,109.137a.3.3,0,0,1,0-.591H469.9a.3.3,0,1,1,0,.591Z" transform="translate(-438.826 -91.825)" fill="#fff" fill-rule="evenodd"/>
        <path id="Path_3303" data-name="Path 3303" d="M449.305,109.137a.3.3,0,0,1,0-.591h3.808a.3.3,0,1,1,0,.591Z" transform="translate(-434.992 -91.825)" fill="#fff" fill-rule="evenodd"/>
      </g>
    </g>
    <path id="Path_3304" data-name="Path 3304" d="M683,415.854a.673.673,0,0,0-1.347,0v1.583h-1.582a.673.673,0,1,0,0,1.346h1.582v1.583a.673.673,0,0,0,1.347,0v-1.583h1.583a.673.673,0,1,0,0-1.346H683Z" transform="translate(-244.986 -140.922)" fill="#bfcce8" fill-rule="evenodd"/>
    <g id="Group_3831" data-name="Group 3831" transform="translate(123.813 258.312)">
      <g id="Group_3829" data-name="Group 3829" transform="translate(0 5.97)">
        <path id="Path_3305" data-name="Path 3305" d="M240.911,398.934h-22.8a3.408,3.408,0,0,0,0,6.817h22.8a3.408,3.408,0,0,0,0-6.817Z" transform="translate(-189.504 -398.934)" fill="#0076bd" fill-rule="evenodd"/>
        <path id="Path_3306" data-name="Path 3306" d="M174.323,399.581h29.163a3.02,3.02,0,0,1,3.011,3.011h0a3.021,3.021,0,0,1-3.011,3.012H174.323Z" transform="translate(-173.926 -399.184)" fill="#fff" fill-rule="evenodd"/>
        <path id="Path_3307" data-name="Path 3307" d="M174.073,398.934a.4.4,0,1,0,0,.794h29.163a2.614,2.614,0,0,1,0,5.228H174.073a.4.4,0,1,0,0,.794h29.163a3.408,3.408,0,0,0,0-6.817Z" transform="translate(-173.676 -398.934)" fill="#004a82" fill-rule="evenodd"/>
        <path id="Path_3308" data-name="Path 3308" d="M253.528,402.342a3.418,3.418,0,0,0-3.409-3.408h2.965a3.408,3.408,0,0,1,0,6.817h-2.965a3.418,3.418,0,0,0,3.409-3.409Z" transform="translate(-203.17 -398.934)" fill="#004a82" fill-rule="evenodd"/>
        <path id="Path_3309" data-name="Path 3309" d="M246.533,402.342a3.418,3.418,0,0,0-3.409-3.408h2.965a3.408,3.408,0,0,1,0,6.817h-2.965a3.418,3.418,0,0,0,3.409-3.409Z" transform="translate(-200.471 -398.934)" fill="#004a82" fill-rule="evenodd"/>
      </g>
      <g id="Group_3830" data-name="Group 3830" transform="translate(3.408)">
        <path id="Path_3310" data-name="Path 3310" d="M182.21,389.214h19.97a2.985,2.985,0,0,1,0,5.97H182.21a2.985,2.985,0,0,1,0-5.97Z" transform="translate(-179.225 -389.214)" fill="#12afa0" fill-rule="evenodd"/>
        <path id="Path_3311" data-name="Path 3311" d="M239.115,389.78H213.578a2.645,2.645,0,0,0-2.637,2.637h0a2.645,2.645,0,0,0,2.637,2.637h25.537Z" transform="translate(-191.462 -389.432)" fill="#fff" fill-rule="evenodd"/>
        <path id="Path_3312" data-name="Path 3312" d="M238.9,389.214a.348.348,0,0,1,0,.7H213.359a2.289,2.289,0,0,0,0,4.579H238.9a.348.348,0,1,1,0,.7H213.359a2.985,2.985,0,0,1,0-5.97Z" transform="translate(-191.243 -389.214)" fill="#079f90" fill-rule="evenodd"/>
        <path id="Path_3313" data-name="Path 3313" d="M183.952,392.2a2.993,2.993,0,0,1,2.985-2.985h-2.6a2.985,2.985,0,0,0,0,5.97h2.6a2.992,2.992,0,0,1-2.985-2.985Z" transform="translate(-180.047 -389.214)" fill="#079f90" fill-rule="evenodd"/>
        <path id="Path_3314" data-name="Path 3314" d="M190.076,392.2a2.993,2.993,0,0,1,2.985-2.985h-2.6a2.985,2.985,0,0,0,0,5.97h2.6a2.992,2.992,0,0,1-2.985-2.985Z" transform="translate(-182.41 -389.214)" fill="#079f90" fill-rule="evenodd"/>
      </g>
    </g>
    <g id="Group_3832" data-name="Group 3832" transform="translate(209.141 206.686)">
      <path id="Rectangle_533" data-name="Rectangle 533" d="M3.116,0h98.076a3.116,3.116,0,0,1,3.116,3.116v0a3.114,3.114,0,0,1-3.114,3.114H3.114A3.114,3.114,0,0,1,0,3.116v0A3.116,3.116,0,0,1,3.116,0Z" transform="translate(0 58.962)" fill="#a8a6b5"/>
      <path id="Path_3315" data-name="Path 3315" d="M414.347,409.457H316.269a3.346,3.346,0,0,1-2.729-1.469,2.91,2.91,0,0,1,2.553-1.468H414.17a3.348,3.348,0,0,1,2.729,1.468A2.907,2.907,0,0,1,414.347,409.457Z" transform="translate(-312.968 -344.265)" fill="#96929f" fill-rule="evenodd"/>
      <path id="Path_3316" data-name="Path 3316" d="M429.326,364.117H350.88a3.79,3.79,0,0,1-3.818-4.076l3.211-50.811a4.416,4.416,0,0,1,4.333-4.075h78.445a3.79,3.79,0,0,1,3.818,4.075l-3.211,50.811A4.415,4.415,0,0,1,429.326,364.117Z" transform="translate(-325.899 -305.155)" fill="#96929f" fill-rule="evenodd"/>
      <path id="Path_3317" data-name="Path 3317" d="M430.78,364.117H354.648a3.79,3.79,0,0,1-3.818-4.076l3.211-50.811a4.415,4.415,0,0,1,4.332-4.075h76.132a3.79,3.79,0,0,1,3.817,4.075l-3.211,50.811A4.415,4.415,0,0,1,430.78,364.117Z" transform="translate(-327.353 -305.155)" fill="#fff" fill-rule="evenodd"/>
      <path id="Path_3318" data-name="Path 3318" d="M428.536,364.117H420.7L355.758,312.21l.189-2.98a4.29,4.29,0,0,1,.93-2.388l71.66,57.275Zm-62.863-58.962,70.844,56.623a4.23,4.23,0,0,0,.5-1.737l.5-7.9L378.73,305.155Z" transform="translate(-329.257 -305.155)" fill="#f0eef0" fill-rule="evenodd"/>
      <path id="Rectangle_534" data-name="Rectangle 534" d="M3.116,0H20.938a3.116,3.116,0,0,1,3.116,3.116v0A3.114,3.114,0,0,1,20.939,6.23H3.114A3.114,3.114,0,0,1,0,3.116v0A3.116,3.116,0,0,1,3.116,0Z" transform="translate(0 58.962)" fill="#fff"/>
      <path id="Path_3319" data-name="Path 3319" d="M427.446,401.736H345.834a1.68,1.68,0,0,1-1.65-1.557h0a1.454,1.454,0,0,1,1.464-1.558h81.613a1.68,1.68,0,0,1,1.651,1.558h0A1.454,1.454,0,0,1,427.446,401.736Z" transform="translate(-324.79 -341.217)" fill="#d2ced6" fill-rule="evenodd"/>
    </g>
    <g id="Group_3833" data-name="Group 3833" transform="translate(57.416 150.92)">
      <path id="Path_3320" data-name="Path 3320" d="M304.877,266.125a16.158,16.158,0,0,1,.125-7.512l-12.861-1.086,17.9-7.845a41.341,41.341,0,0,0,5.59-9.24c1.791-4.579-3.065-16.221-4.891-19.11s-5.617-2.456-8.114-.893c0,0-3.75-5.65-8.226-6.028s-18.7.934-22.836,11.374,2.516,20.877-4.139,31.617a2.675,2.675,0,0,0,.278,2.5c.864,1.145,11.358,13.375,35.275,8.447a2.431,2.431,0,0,0,1.9-2.229Z" transform="translate(-143.376 -214.357)" fill="#0e1632" fill-rule="evenodd"/>
      <path id="Path_3321" data-name="Path 3321" d="M288.022,284.133c1.317-14.382,2.246-26.882,2.246-26.882l-1.22-4.053s-11.013,8.9-18.833-.464c.372,6.425,1.29,12.894-2.79,19.477a2.675,2.675,0,0,0,.278,2.5l.035.047.013.015.03.038.032.039.019.025.057.068,0,0,.068.08.02.023.057.065.048.055.037.04.082.092.011.011.1.11.023.025.088.093.061.064.057.059.041.042.086.087.135.136.094.091.071.071c2.288,2.213,7.619,6.307,16.6,7.729l.026,0q1.168.184,2.419.305Z" transform="translate(-143.376 -229.164)" fill="#010518" fill-rule="evenodd"/>
      <path id="Path_3322" data-name="Path 3322" d="M308.653,289.626c-.817-4.069-.246-5.7.894-11.139l-20.466-3.221L280.138,277a59.953,59.953,0,0,1-3.119,11.074c5.445,3.371,15.064,6.8,29.735,3.781a2.431,2.431,0,0,0,1.9-2.229Z" transform="translate(-147.153 -237.858)" fill="#010518" fill-rule="evenodd"/>
      <path id="Path_3323" data-name="Path 3323" d="M267.7,299.7c5.663,1.776,13.405,3.9,20.081,7.182.461.227-.479,2-.051,2.242a15.649,15.649,0,0,1,2.929,2.381c3.118,3.083,9.462,27.213,8.9,29.617-.911,3.867-8.927,14.492-8.927,14.492-1.592,3.074-3.565,7.552-5.5,12.391H245.318c2.773-9.014,3.8-15.12,3.878-20.624h0c2.126-18.709-7.934-22.779-7.934-22.779l10.419-24.517c4.053-1.435,12.136-.9,12.136-.9A8.29,8.29,0,0,1,267.7,299.7Z" transform="translate(-133.357 -247.051)" fill="#12afa0" fill-rule="evenodd"/>
      <path id="Path_3324" data-name="Path 3324" d="M299.59,374.295h-5.619c1.047-2.8,5.918-16.054,6.96-18.883-4.735-.824-11.254-1.954-12.4-2.228s-5.55,2.241-5.55,2.241l.489-2.86-4.725,4.759,8.079-15.088s13.184,2.977,15.985,3.488,1.093.122,1.613.08c1.558-4.382-.993-5.608-.69-7.729s.392-22.689.392-22.689c1.7.883,2.473,2.8,3.437,5.828.634,1.992,4,15.083,5.394,22.825.332,1.842.594,3.22.76,4.319C310.588,356.324,303.575,364.343,299.59,374.295Z" transform="translate(-147.817 -253.338)" fill="#079f90" fill-rule="evenodd"/>
      <path id="Path_3325" data-name="Path 3325" d="M295.317,263.287l-1.993,5.988s-3.015,14.131-3.712,15.963c-.243.636-1.04.83-2.266.8,1.764,2.526,5.19,6.38,10.142,7.318a9.607,9.607,0,0,0,6.875-.876c-1.058-.558-2.069-1.222-2.064-1.766.043-4.822.871-13.31,3.485-14.879C308.777,274.038,295.317,263.287,295.317,263.287Z" transform="translate(-151.137 -233.236)" fill="#e8685b" fill-rule="evenodd"/>
      <path id="Path_3326" data-name="Path 3326" d="M287.169,300.2a12.589,12.589,0,0,1-2.853-.111,21.552,21.552,0,0,0,6.339,5.727c7.809,4.948,11.568,2.252,12.757.98a8.712,8.712,0,0,1-1.9-1.222h0c-7.287,3.56-14.339-5.375-14.339-5.375Z" transform="translate(-149.968 -247.434)" fill="#fff" fill-rule="evenodd"/>
      <path id="Path_3327" data-name="Path 3327" d="M312.142,311.525s3.114,31.338,2.735,33.985-5.328,15.688-9.668,27.291h7.461c1.474-2.84,2.6-5.058,2.8-5.592.133-.345.649-1.347,1.358-2.661,1.275-2.361,3.18-5.726,4.615-8.083,4.575-7.51,4.563-5.757,2.979-14.554-1.394-7.743-5.67-22.069-6.3-24.061C317.159,314.822,312.949,311.3,312.142,311.525Z" transform="translate(-158.029 -251.844)" fill="#1c2344" fill-rule="evenodd"/>
      <path id="Path_3328" data-name="Path 3328" d="M313.613,380.365c-1.026,2.867-2.219,6.132-3.456,9.483a24.925,24.925,0,0,1,4.722.676c2.269.891,2.506,1.908,2.506,1.908.133-.345.648-1.348,1.357-2.661,1.276-2.361,3.18-5.726,4.615-8.083,1.376-2.26,2.336-3.679,2.965-4.8a12.974,12.974,0,0,1-2.968,2.146C322.528,379.283,316.169,380.059,313.613,380.365Z" transform="translate(-159.938 -277.066)" fill="#0e1632" fill-rule="evenodd"/>
      <path id="Path_3329" data-name="Path 3329" d="M265.693,298.727s5.714,27.679,6.5,35.725-1.733,13.8-4.564,19.85c-.954,2.038-4.014,7.238-7.783,13.4H242.251l1.882-43.48-5.045-1.169c.3-2.184.545-3.993.712-5.26l9.933-17.561S253.477,297.191,265.693,298.727Z" transform="translate(-132.517 -246.742)" fill="#1c2344" fill-rule="evenodd"/>
      <path id="Path_3330" data-name="Path 3330" d="M255,318.324c-2.807,11.272-.858,15.946-.858,15.946l1.5-7.014s1.422,10.353,3,11.673c.785.656,10.137,2.449,13.641,3.1a29.4,29.4,0,0,1-1.722,11.6c-2.515.259-17.647-1.873-18.37,3.016-.361,2.438-.279-5.406-.279-5.406l-.9,22.736h-8.771l1.882-43.48-5.045-1.169.014-.1.014-.1.014-.1.014-.1h0l.014-.1.014-.1.013-.1.014-.1.014-.1.013-.1.013-.1h0l.013-.1.014-.1.012-.095h0l.014-.093.012-.093h0l.013-.093h0l.012-.092h0l.013-.092h0l.012-.09h0l.012-.09h0l.012-.09h0l.012-.088h0l.012-.088h0l.012-.088h0l.012-.087h0l.012-.087h0l.012-.085h0l.012-.085h0l.012-.084h0l.011-.084h0l.011-.083h0l.012-.082h0l.011-.082h0l.011-.081h0l.01-.08h0l.011-.079h0l.01-.079h0l.011-.078h0l.01-.078h0l.01-.077h0l.01-.076h0l.01-.076h0l.01-.074h0l.01-.074h0l.01-.074h0l.01-.072h0l.009-.072h0l.01-.071h0l.009-.071h0l.009-.07h0l.009-.068h0l.01-.068h0l.009-.068h0l.009-.066h0l.009-.065h0l.009-.066h0l.009-.064h0l.009-.063h0l.008-.063h0l.009-.062h0l.008-.061h0l.008-.06h0l.008-.06,5.379-9.509Z" transform="translate(-132.517 -253.017)" fill="#0e1632" fill-rule="evenodd"/>
      <path id="Path_3331" data-name="Path 3331" d="M240.451,313.125c-3.221,8.8-4.1,38.984-1.443,55.188H253.14c-5.78-32.165,6.36-55.172,3.692-63.323C252.563,291.941,242.569,307.34,240.451,313.125Z" transform="translate(-131.882 -247.356)" fill="#383d5d" fill-rule="evenodd"/>
      <path id="Path_3332" data-name="Path 3332" d="M331.581,268.092l1.575-.69a45.422,45.422,0,0,0,4.583-7.022c-.375.714-2.856,5.053-6.49,2.4-3.95-2.885-4.109,1.683-4.109,1.683s2.39,2.715,3.778,3.349c.179.082.405.177.664.279Zm6.206-7.807v0h0Z" transform="translate(-166.491 -232.076)" fill="#010518" fill-rule="evenodd"/>
      <path id="Path_3333" data-name="Path 3333" d="M328.521,268.713a4.5,4.5,0,1,0,4.017,4.945A4.507,4.507,0,0,0,328.521,268.713Z" transform="translate(-165.107 -235.32)" fill="#e8685b" fill-rule="evenodd"/>
      <path id="Path_3334" data-name="Path 3334" d="M277.861,263.522c-.112,0-.224.015-.334.028h0a4.506,4.506,0,1,0,3.671,1.219c0,1.335-.347,2.957-2.052,2.978l.267-2.584A1.548,1.548,0,0,0,277.861,263.522Z" transform="translate(-145.823 -233.326)" fill="#e8685b" fill-rule="evenodd"/>
      <path id="Path_3335" data-name="Path 3335" d="M300.543,229.367h0a15.475,15.475,0,0,0-16.937,13.758l-1.445,13.948A15.475,15.475,0,0,0,295.92,274.01h0a15.474,15.474,0,0,0,16.937-13.758L314.3,246.3A15.474,15.474,0,0,0,300.543,229.367Z" transform="translate(-149.105 -220.116)" fill="#f4ad85" fill-rule="evenodd"/>
      <path id="Path_3336" data-name="Path 3336" d="M283.353,250.721l-1.191,11.5a15.49,15.49,0,0,0,9.835,16c-8.98-3.72-4.377-19.33-4.377-19.33,1.819-.31,4.687-3.7,6.354-5.672s2.958-3.963,5.835-3.9a59.372,59.372,0,0,1,8.958,1.569,16.919,16.919,0,0,0,4.945,6.264l.59-5.693a15.309,15.309,0,0,0-.292-4.953c-.372-.219-.754-.44-1.158-.667C300.493,238.886,290,244.507,283.353,250.721Z" transform="translate(-149.105 -225.266)" fill="#ed9072" fill-rule="evenodd"/>
      <path id="Path_3337" data-name="Path 3337" d="M319.774,247.363l-2.5,1.06a7.362,7.362,0,0,0-5.031-.809s-5.479-2.014-8.382-.892-1.2-2.909-.663-3.086a35.491,35.491,0,0,1,8.431-.064c2.4.461,6.011,1.024,6.011,1.024Z" transform="translate(-156.875 -225.541)" fill="#010518" fill-rule="evenodd"/>
      <path id="Path_3338" data-name="Path 3338" d="M283.039,262.307l1.479.26s1.027,4.676-1.876,4.712l.267-2.584a1.464,1.464,0,0,0-.03-.5Z" transform="translate(-149.322 -232.858)" fill="#010518" fill-rule="evenodd"/>
      <path id="Path_3339" data-name="Path 3339" d="M304.015,240.826c-2.255-3.043-5.941-3.665-8.807.609-2.617,3.9-6.505,10.662-13.048,10.11l-.033-.12.015,0,.368-4.36s-.551.144-1.22.3a28.14,28.14,0,0,1-.226-7.813c.758-5.479,8.38-13.482,16.979-13.79s14.819,4.8,16.051,7.71a64.931,64.931,0,0,1,2.448,9.518l-1.513,2.164-1.63,4.3c-3.955-3.848-3.549-7.487-5.268-9.32C307.2,239.145,305.81,239.142,304.015,240.826Z" transform="translate(-148.644 -218.753)" fill="#0e1632" fill-rule="evenodd"/>
      <path id="Path_3340" data-name="Path 3340" d="M294.469,253.491c-2.595,3.926-6.318,9.249-12.154,8.757l-.033-.12.015,0,.368-4.36s-.551.144-1.22.3c-.058-.376-.112-.771-.162-1.178C287.875,258.807,294.448,253.508,294.469,253.491Z" transform="translate(-148.799 -229.456)" fill="#010518" fill-rule="evenodd"/>
      <path id="Path_3341" data-name="Path 3341" d="M313.464,309.821s4.015,32.938,3.936,34.008-1.146,6.22-1.146,6.22a21.724,21.724,0,0,0,2.414-5.943c.475-2.694,1.743-20.915,1.743-20.915l-2.138-1.148,1.981-.119-3.269-10.233a2.89,2.89,0,0,0-.89-1.056c-.515-.3-2.391-1.239-2.421-1.253a1.226,1.226,0,0,0-.734.088S313.327,309.736,313.464,309.821Z" transform="translate(-161.011 -251.013)" fill="#484e6a" fill-rule="evenodd"/>
      <path id="Path_3342" data-name="Path 3342" d="M278.915,298.757s5.714,27.679,6.5,35.725a28.552,28.552,0,0,1-.495,8.919c1.053-8.23-10.53-27.6-10.53-27.6l3.01-1.427-4.04-1.822s1.862-10.417,1.981-12.16c.115-1.694-.782-2.01-.833-2.026C275.835,298.432,277.3,298.555,278.915,298.757Z" transform="translate(-145.74 -246.772)" fill="#484e6a" fill-rule="evenodd"/>
      <path id="Path_3343" data-name="Path 3343" d="M84.432,423.037h5a3.636,3.636,0,0,0,3.625-3.624h0a3.637,3.637,0,0,0-3.625-3.625H76.219a2.886,2.886,0,0,1-2.877-2.876h0a2.887,2.887,0,0,1,2.877-2.878h349.1a2.887,2.887,0,0,1,2.877,2.878h0a2.887,2.887,0,0,1-2.877,2.876H407.2a3.636,3.636,0,0,0-3.625,3.625h0a3.635,3.635,0,0,0,3.625,3.624h4.247a5.77,5.77,0,0,1,5.754,5.754h0a5.772,5.772,0,0,1-5.754,5.754H84.432a5.773,5.773,0,0,1-5.754-5.754h0a5.771,5.771,0,0,1,5.754-5.754Zm-15.987-13a2.877,2.877,0,1,1-2.877,2.878A2.878,2.878,0,0,1,68.444,410.033Z" transform="translate(-65.567 -289.855)" fill="#002460" fill-rule="evenodd"/>
    </g>
    <g id="Group_3834" data-name="Group 3834" transform="translate(224.117 120.287)">
      <path id="Path_3344" data-name="Path 3344" d="M367.846,164.479H341.621a4.638,4.638,0,0,0-4.627,4.627V191.95a1,1,0,0,0,.615.919h0a.988.988,0,0,0,1.085-.215l6.806-6.806h22.345a4.64,4.64,0,0,0,4.628-4.627V169.106a4.639,4.639,0,0,0-4.628-4.627Zm-26.225,1.08h26.225a3.56,3.56,0,0,1,3.547,3.547v12.115a3.559,3.559,0,0,1-3.547,3.547H345.053l-6.979,6.979V169.106a3.56,3.56,0,0,1,3.547-3.547Z" transform="translate(-336.994 -164.479)" fill="#1a293d" fill-rule="evenodd"/>
      <path id="Path_3345" data-name="Path 3345" d="M370.649,171.463a.3.3,0,0,0,0-.59H343.986a.3.3,0,1,0,0,.59Z" transform="translate(-339.578 -166.946)" fill="#1a293d" fill-rule="evenodd"/>
      <path id="Path_3346" data-name="Path 3346" d="M370.649,176.154a.3.3,0,0,0,0-.59h-2.825a.3.3,0,0,0,0,.59Zm-6.584,0a.3.3,0,1,0,0-.59H343.986a.3.3,0,1,0,0,.59Z" transform="translate(-339.578 -168.756)" fill="#1a293d" fill-rule="evenodd"/>
      <path id="Path_3347" data-name="Path 3347" d="M370.649,180.846a.3.3,0,0,0,0-.591H343.986a.3.3,0,0,0,0,.591Z" transform="translate(-339.578 -170.566)" fill="#1a293d" fill-rule="evenodd"/>
      <path id="Path_3348" data-name="Path 3348" d="M363.234,187.206a.3.3,0,0,0,0-.591H343.986a.3.3,0,0,0,0,.591Z" transform="translate(-339.578 -173.02)" fill="#1a293d" fill-rule="evenodd"/>
      <path id="Path_3349" data-name="Path 3349" d="M354.64,192.295a.3.3,0,0,0,0-.591H343.986a.3.3,0,0,0,0,.591Z" transform="translate(-339.578 -174.983)" fill="#1a293d" fill-rule="evenodd"/>
      <path id="Path_3350" data-name="Path 3350" d="M368.878,192.295a.3.3,0,0,0,0-.591h-3.809a.3.3,0,1,0,0,.591Z" transform="translate(-347.712 -174.983)" fill="#1a293d" fill-rule="evenodd"/>
    </g>
  </g>
</svg>
